<?xml version="1.0" encoding="utf-8"?>
<!-- Generator: Adobe Illustrator 24.1.0, SVG Export Plug-In . SVG Version: 6.00 Build 0)  -->
<svg version="1.1" id="Laag_1" xmlns="http://www.w3.org/2000/svg" xmlns:xlink="http://www.w3.org/1999/xlink" x="0px" y="0px"
	 viewBox="0 0 78.9 48" style="enable-background:new 0 0 78.9 48;" xml:space="preserve">
<g>
	<path d="M33.2,15.8h-1.7c-1,0-1.7-0.8-1.7-1.7c0-0.3-0.3-0.6-0.6-0.6H25c-0.3,0-0.6,0.3-0.6,0.6c0,0.3,0.3,0.6,0.6,0.6h1.7
		c1,0,1.7,0.8,1.7,1.7c0,0.3,0.3,0.6,0.6,0.6h4.1c0.3,0,0.6-0.3,0.6-0.6S33.5,15.8,33.2,15.8z"/>
	<path d="M4.1,16.4c0,0.3,0.3,0.6,0.6,0.6h4.1c0.3,0,0.6-0.3,0.6-0.6S9,15.8,8.7,15.8H7c-1,0-1.7-0.8-1.7-1.7c0-0.3-0.3-0.6-0.6-0.6
		H0.6c-0.3,0-0.6,0.3-0.6,0.6c0,0.3,0.3,0.6,0.6,0.6h1.7C3.3,14.7,4.1,15.5,4.1,16.4z"/>
	<rect x="24.4" y="38" width="1.2" height="1.2"/>
	<rect x="24.4" y="33.3" width="1.2" height="1.2"/>
	<rect x="9.3" y="20.5" width="15.1" height="1.2"/>
	<rect x="24.4" y="42.6" width="1.2" height="1.2"/>
	<rect x="19.8" y="27.5" width="1.2" height="1.2"/>
	<path d="M7.6,28.1v-0.6c0-0.6-0.5-1.2-1.2-1.2s-1.2,0.5-1.2,1.2v0.6c0,0.3-0.3,0.6-0.6,0.6H1.2v1.2h8.1v-1.2H8.1
		C7.8,28.6,7.6,28.4,7.6,28.1z"/>
	<path d="M14,47.3h1.2v-4.1c0-0.3,0.3-0.6,0.6-0.6H18c0.3,0,0.6,0.3,0.6,0.6v4.1h1.2v-5.8H14V47.3z"/>
	<rect x="8.1" y="33.3" width="1.2" height="1.2"/>
	<rect x="8.1" y="38" width="1.2" height="1.2"/>
	<rect x="8.1" y="42.6" width="1.2" height="1.2"/>
	<path d="M19.8,16.4c0-1.6-1.3-2.9-2.9-2.9S14,14.8,14,16.4v2.9h5.8V16.4z"/>
	<rect x="19.8" y="32.1" width="1.2" height="1.2"/>
	<rect x="3.5" y="42.6" width="1.2" height="1.2"/>
	<rect x="3.5" y="33.3" width="1.2" height="1.2"/>
	<path d="M1.2,47.3h8.1v-2.3H7.6c-0.3,0-0.6-0.3-0.6-0.6V42c0-0.3,0.3-0.6,0.6-0.6h1.7v-1.2H7.6C7.2,40.3,7,40,7,39.7v-2.3
		c0-0.3,0.3-0.6,0.6-0.6h1.7v-1.2H7.6C7.2,35.6,7,35.4,7,35v-2.3c0-0.3,0.3-0.6,0.6-0.6h1.7V31H1.2V47.3z M2.3,32.7
		c0-0.3,0.3-0.6,0.6-0.6h2.3c0.3,0,0.6,0.3,0.6,0.6V35c0,0.3-0.3,0.6-0.6,0.6H2.9c-0.3,0-0.6-0.3-0.6-0.6V32.7z M2.3,37.4
		c0-0.3,0.3-0.6,0.6-0.6h2.3c0.3,0,0.6,0.3,0.6,0.6v2.3c0,0.3-0.3,0.6-0.6,0.6H2.9c-0.3,0-0.6-0.3-0.6-0.6V37.4z M2.3,42
		c0-0.3,0.3-0.6,0.6-0.6h2.3c0.3,0,0.6,0.3,0.6,0.6v2.3c0,0.3-0.3,0.6-0.6,0.6H2.9c-0.3,0-0.6-0.3-0.6-0.6V42z"/>
	<rect x="3.5" y="38" width="1.2" height="1.2"/>
	<rect x="16.3" y="43.8" width="1.2" height="3.5"/>
	<path d="M10.5,47.3h2.3v-5.8h-1.2v-1.2h10.5v1.2h-1.2v5.8h2.3V22.8H10.5V47.3z M18.6,26.9c0-0.3,0.3-0.6,0.6-0.6h2.3
		c0.3,0,0.6,0.3,0.6,0.6v2.3c0,0.3-0.3,0.6-0.6,0.6h-2.3c-0.3,0-0.6-0.3-0.6-0.6V26.9z M18.6,31.6c0-0.3,0.3-0.6,0.6-0.6h2.3
		c0.3,0,0.6,0.3,0.6,0.6v2.3c0,0.3-0.3,0.6-0.6,0.6h-2.3c-0.3,0-0.6-0.3-0.6-0.6V31.6z M18.6,36.2c0-0.3,0.3-0.6,0.6-0.6h2.3
		c0.3,0,0.6,0.3,0.6,0.6v2.3c0,0.3-0.3,0.6-0.6,0.6h-2.3c-0.3,0-0.6-0.3-0.6-0.6V36.2z M11.6,26.9c0-0.3,0.3-0.6,0.6-0.6h2.3
		c0.3,0,0.6,0.3,0.6,0.6v2.3c0,0.3-0.3,0.6-0.6,0.6h-2.3c-0.3,0-0.6-0.3-0.6-0.6V26.9z M11.6,31.6c0-0.3,0.3-0.6,0.6-0.6h2.3
		c0.3,0,0.6,0.3,0.6,0.6v2.3c0,0.3-0.3,0.6-0.6,0.6h-2.3c-0.3,0-0.6-0.3-0.6-0.6V31.6z M11.6,36.2c0-0.3,0.3-0.6,0.6-0.6h2.3
		c0.3,0,0.6,0.3,0.6,0.6v2.3c0,0.3-0.3,0.6-0.6,0.6h-2.3c-0.3,0-0.6-0.3-0.6-0.6V36.2z"/>
	<rect x="29.1" y="42.6" width="1.2" height="1.2"/>
	<rect x="12.8" y="36.8" width="1.2" height="1.2"/>
	<rect x="29.1" y="38" width="1.2" height="1.2"/>
	<path d="M30.2,30.4v-1.7h-1.7c-0.3,0-0.6-0.3-0.6-0.6v-1.7h-1.2v1.7c0,0.3-0.3,0.6-0.6,0.6h-1.7v3.5h1.7c0.3,0,0.6,0.3,0.6,0.6V35
		c0,0.3-0.3,0.6-0.6,0.6h-1.7v1.2h1.7c0.3,0,0.6,0.3,0.6,0.6v2.3c0,0.3-0.3,0.6-0.6,0.6h-1.7v1.2h1.7c0.3,0,0.6,0.3,0.6,0.6v2.3
		c0,0.3-0.3,0.6-0.6,0.6h-1.7v2.3h8.1V31h-1.7C30.5,31,30.2,30.7,30.2,30.4z M31.4,44.3c0,0.3-0.3,0.6-0.6,0.6h-2.3
		c-0.3,0-0.6-0.3-0.6-0.6V42c0-0.3,0.3-0.6,0.6-0.6h2.3c0.3,0,0.6,0.3,0.6,0.6V44.3z M31.4,39.7c0,0.3-0.3,0.6-0.6,0.6h-2.3
		c-0.3,0-0.6-0.3-0.6-0.6v-2.3c0-0.3,0.3-0.6,0.6-0.6h2.3c0.3,0,0.6,0.3,0.6,0.6V39.7z M31.4,32.7V35c0,0.3-0.3,0.6-0.6,0.6h-2.3
		c-0.3,0-0.6-0.3-0.6-0.6v-2.3c0-0.3,0.3-0.6,0.6-0.6h2.3C31.2,32.1,31.4,32.4,31.4,32.7z"/>
	<rect x="12.8" y="32.1" width="1.2" height="1.2"/>
	<rect x="29.1" y="33.3" width="1.2" height="1.2"/>
	<rect x="19.8" y="36.8" width="1.2" height="1.2"/>
	<rect x="12.8" y="27.5" width="1.2" height="1.2"/>
</g>
<g>
	<rect x="32.1" y="46.9" width="46.8" height="1.1"/>
	<path d="M46.5,13.3c1.6,0,2.9-1.3,2.9-2.9s-1.3-2.9-2.9-2.9c-1.6,0-2.9,1.3-2.9,2.9C43.5,12,44.8,13.3,46.5,13.3z"/>
	<rect x="50.5" y="9.9" width="2.2" height="1"/>
	<polygon points="49,13.7 50.5,15.2 51.2,14.5 49.7,13 	"/>
	<rect x="49" y="6.1" transform="matrix(0.6996 -0.7146 0.7146 0.6996 10.3143 37.7971)" width="2.2" height="1"/>
	<rect x="40.2" y="9.9" width="2.2" height="1"/>
	<polygon points="43.9,7.1 42.4,5.5 41.7,6.2 43.2,7.8 	"/>
	<polygon points="43.2,13 41.7,14.5 42.4,15.2 43.9,13.7 	"/>
	<rect x="46" y="4" width="1" height="2.2"/>
	<rect x="46" y="14.6" width="1" height="2.2"/>
	<polygon points="54.3,26 55.9,27.8 66.8,27.8 68.3,26 	"/>
	<rect x="53.7" y="23.8" width="15.2" height="1.2"/>
	<path d="M38.6,28.8L38.6,28.8c0.8-0.2,1.3,0.3,1.6,0.9l0,0l0,0c0.1,0,1-0.3,1-0.2c-0.1-0.7,0.2-1.4,0.9-1.6l0,0c0,0,0,0,0,0l-0.2-1
		c-0.8,0.2-1.3,0.7-1.5,1.3c-0.5-0.4-1.2-0.6-1.9-0.4L38.6,28.8C38.6,28.8,38.6,28.8,38.6,28.8z"/>
	<polygon points="53.3,34.4 48.4,28.9 43.5,34.4 43.5,35.3 53.3,35.3 	"/>
	<path d="M43.5,36.3V47h9.8V36.3H43.5z M47.4,45.6h-2.5V44c0-0.7,0.6-1.2,1.2-1.2s1.2,0.6,1.2,1.2V45.6z M47.4,40.4h-2.5v-1.6
		c0-0.7,0.6-1.2,1.2-1.2s1.2,0.6,1.2,1.2V40.4z M51.9,45.6h-2.5V44c0-0.7,0.6-1.2,1.2-1.2s1.2,0.6,1.2,1.2V45.6z M51.9,40.4h-2.5
		v-1.6c0-0.7,0.6-1.2,1.2-1.2s1.2,0.6,1.2,1.2V40.4z"/>
	<rect x="54.3" y="44.4" width="4.5" height="2.6"/>
	<path d="M56.1,28.8v6.5h4.7v-6.5H56.1z M57.9,33h-1v-2.6h1V33z M59.9,33h-1v-2.6h1V33z"/>
	<path d="M61.8,28.8v6.5h4.7v-6.5H61.8z M63.7,33h-1v-2.6h1V33z M65.7,33h-1v-2.6h1V33z"/>
	<path d="M68.1,36.3H54.3v7.1h4.6c0-1.3,1.1-2.3,2.3-2.3c1.2,0,2.3,1,2.3,2.3h4.6C68.1,43.4,68.1,36.3,68.1,36.3z M56.4,40.2h-1
		v-2.8h1V40.2z M58.6,40.2h-1v-2.8h1V40.2z M60.7,40.2h-1v-2.8h1V40.2z M62.9,40.2h-1v-2.8h1V40.2z M65.1,40.2h-1v-2.8h1V40.2z
		 M67.2,40.2h-1v-2.8h1V40.2z"/>
	<rect x="63.6" y="44.4" width="4.5" height="2.6"/>
	<polygon points="78.9,34.4 74,28.9 69.1,34.4 69.1,35.3 78.9,35.3 	"/>
	<path d="M79.1,25.7L79.1,25.7c-0.2,0-0.3-0.1-0.5-0.1c-0.5,0-1,0.1-1.5,0.5c-0.2-0.6-0.7-1.1-1.5-1.3l0,0l0,0l-0.2,1c0,0,0,0,0,0
		l0,0c0.7,0.2,1,0.9,0.9,1.6l0,0v0c0.1,0,1,0.3,1,0.2c0.2-0.6,0.8-1.1,1.6-0.9L79.1,25.7C79.1,25.7,79.1,25.7,79.1,25.7z"/>
	<path d="M43.3,25.6L43.3,25.6c0.7-0.2,1.3,0.2,1.6,0.9l1-0.2c0-0.1-0.2-1.3,0.9-1.6l-0.2-1c0,0,0,0,0,0l0,0
		C45.7,24,45.2,24.5,45,25c-0.5-0.4-1.1-0.6-1.9-0.4L43.3,25.6C43.3,25.6,43.3,25.6,43.3,25.6z"/>
	<path d="M74.5,20.7c-0.7,0.2-1.2,0.6-1.5,1.3c-0.6-0.5-1.2-0.6-1.9-0.4l0.2,1c0,0,0,0,0,0l0,0c0.7-0.2,1.3,0.3,1.6,0.9l1-0.2
		c-0.1-0.7,0.2-1.4,0.9-1.6l0,0c0,0,0,0,0,0L74.5,20.7z"/>
	<polygon points="56.6,14.7 55.3,13.4 50.7,17.9 52.7,20 61.3,11.3 65.3,15.4 64,16.7 68.6,21.3 70.6,19.3 62,10.6 66.1,6.6 
		67.4,7.9 71.9,3.3 69.9,1.3 61.3,9.9 57.3,5.9 58.6,4.6 54,0 52,2 60.6,10.6 	"/>
	<polygon points="59.2,10.6 58.3,9.7 56,12.7 56.5,13.2 56.6,13.2 	"/>
	<polygon points="62.5,7.4 61.3,5.9 60.2,7.4 61.3,8.5 	"/>
	<polygon points="63.4,10.6 66,13.2 67.1,13.2 64.3,9.7 	"/>
	<path d="M60,22.8l0.4-8.6h-0.6l-3.3,3.3c-0.4,3.2-0.6,4.7-0.7,5.3C56,22.8,60.1,22.8,60,22.8z"/>
	<path d="M62.8,14.2h-0.6l0.4,8.6c0.1,0,4.4,0,4.1,0c0-0.8-0.1-1.5-0.1-2.1l-1.3-1.3l0,0c0,0-2.9-2.9-2.7-2.7l1.3-1.3L62.8,14.2z"/>
	<path d="M69.1,36.3V47h9.8V36.3H69.1z M73,45.6h-2.5V44c0-0.7,0.6-1.2,1.2-1.2S73,43.3,73,44C73,44,73,45.6,73,45.6z M73,40.4h-2.5
		v-1.6c0-0.7,0.6-1.2,1.2-1.2s1.2,0.6,1.2,1.2C73,38.8,73,40.4,73,40.4z M77.5,45.6H75V44c0-0.7,0.6-1.2,1.2-1.2s1.2,0.6,1.2,1.2
		C77.5,44,77.5,45.6,77.5,45.6z M77.5,40.4H75v-1.6c0-0.7,0.6-1.2,1.2-1.2s1.2,0.6,1.2,1.2C77.5,38.8,77.5,40.4,77.5,40.4z"/>
</g>
<rect x="-1.8" y="46.9" width="46.8" height="1.1"/>
</svg>
