<?xml version="1.0" encoding="utf-8"?>
<!-- Generator: Adobe Illustrator 24.1.0, SVG Export Plug-In . SVG Version: 6.00 Build 0)  -->
<svg version="1.1" id="Laag_1" xmlns="http://www.w3.org/2000/svg" xmlns:xlink="http://www.w3.org/1999/xlink" x="0px" y="0px"
	 viewBox="0 0 100 30" style="enable-background:new 0 0 100 30;" xml:space="preserve">
<g>
	<polygon points="20,10 13.3,30 20,30 30,20 	"/>
	<path d="M0,30h13.3L20,10L0,30z M2,29.2l16.1-16.1l-5.4,16.1H2z"/>
	<polygon points="50,0 39.9,30 40,30 60,30 70,20 	"/>
	<path d="M50,0L50,0L30,20L20,30h20L50,0z M48.1,3l-8.8,26.1H22L48.1,3z"/>
	<polygon points="80,10 80,10 70,20 60,30 60,30 	"/>
	<polygon points="80,10 73.3,30 80,30 100,30 	"/>
	<path d="M80,10L80,10L80,10L60,30h13.3L80,10z M62,29.2l16.1-16.1l-5.4,16.1H62z"/>
</g>
</svg>
