<?xml version="1.0" encoding="utf-8"?>
<!-- Generator: Adobe Illustrator 24.1.0, SVG Export Plug-In . SVG Version: 6.00 Build 0)  -->
<svg version="1.1" id="Laag_1" xmlns="http://www.w3.org/2000/svg" xmlns:xlink="http://www.w3.org/1999/xlink" x="0px" y="0px"
	 viewBox="0 0 319 144" style="enable-background:new 0 0 319 144;" xml:space="preserve">
<style type="text/css">
	.st0{fill-rule:evenodd;clip-rule:evenodd;}
</style>
<g>
	<path class="st0" d="M168,68c-1-4-1-10-1-15l9,4c-2-4-3-7-4-10l5,3c-2-4-3-6-4-9l2,1c0-1-1-1-1-2l2,1c-1-3-2-5-3-7h2
		c-24-57-3-30-16-6l0,0c-1,1-2,3-3,6h1h-1h2c-1,2-2,4-3,7l2-1c0,0,0,1-1,2h2c-7,12-2,4,1,5c-1,2-2,5-4,10l9-4v1c-1,3,0,10,0,14
		c-4,2-15,0-25,7c0-4,0-8,0-10l0,0l9,2c-2-3-4-5-5-7l5,1h-1h1c-1-2-2-3-3-5h2c-1,0-1-1-2-1h3c-1-2-2-3-3-4h1v-1h2c-2-2-4-3-4-4l0,0
		l-1-1h4c-2-2-3-4-4-5h1c0,0,0,0-1,0h1c-1-2-2-4-3-6h3c-4-5-6-10-6-12c-3,5-5,11-7,13l4-1l-1,1c-2,4-2,3-6,10l4-1c-1,1-1,2-4,7l2-1
		c-1,2-2,3-3,6l2-1c0,1-1,1-1,1h2c-1,2-2,3-3,6l4-2c-1,2-2,4-4,8l9-3c0,5-1,10-1,13l-1,1c-9,9-15,23-23,28l0,0c0-3,0-7,0-9v-1l7,2
		c-2-3-3-4-4-6l4,1h-1h1c-1-2-2-3-2-4h1c0-1-1-1-1-2l2,1c-1-2-2-3-3-4h2l-1-1l1,1c-1-2-2-3-3-4h1c-1-1-1-1-1-2l3,1c-1-2-2-3-3-4h1
		c-1,0-1-1-1-1h1c-1-1-2-3-3-5h3c-4-4-5-9-6-11c-2,5-4,10-6,12l3-1v1c-2,3-2,2-5,8h3c0,1-1,1-4,6l2-1c0,2-1,3-3,5h2c0,0,0,0,0,1l1-1
		c0,2-1,3-3,6l4-2c-1,2-2,4-3,7l8-3c0,5-1,9-1,12c-7,3,10-17-48,8c0-2,0-5,0-6v-1l5,2c-1-2-2-4-3-5l3,1v-1v1c-1-2-1-3-2-4h1
		c0,0,0-1-1-1h2c-1-1-1-2-2-3h1v-1v1c-1-2-1-3-2-4h1c-1,0-1-1-1-1h2c-1-1-1-2-2-3l0,0l0,0h1c-8-14,0-20-10,3l2-1c0,1-1,2-3,6l2-1
		c-1,2-1,3-2,5l1-1v1h1c-1,1-2,2-2,4l2-1c0,2-1,3-2,6l5-3c0,4,0,7,0,9c-2,2-5,4-9,7c-1-2-2-3-3-4l3,1c-1-2-2-3-2-4l1,1c0-1,0-1,0-1
		h1c-1-1-2-2-2-3h1c-2-3-2-3-3-4l3,1c-13-19-3-13-12-3l0,0l0,0l0,0c0,1-1,1-2,3h3c-1,0-1,0-1,0l0,0c-1,1-1,2-2,3l0,0l0,0h1
		c0,1-1,2-2,3h2c0,0-1,0-1,1h1c-1,0-1,1-2,3v-1v1l3-1c0,1-1,2-3,4l7-1l0,0c-1,1-1,3-1,5c-2,1-4,2-7,2c-4,0-9,2-13,4c0-2,0-3-1-4l0,0
		l8,1c-2-2-3-3-4-4l4,1l-1-1l1,1c-1-1-2-2-3-3h2c-1,0-1,0-1-1l2,1c-1-1-2-2-3-3h2h-1h1c-1-1-2-2-3-2h1c-1-1-1-1-1-1h3c-1-1-2-2-3-2
		l0,0c0,0,0,0,0-1h1c-1-1-2-2-3-3h3c-4-2-5-5-6-6c-2,2-4,6-6,7h3l0,0c-2,2-2,1-5,5l4-1c-1,1-2,2-4,4h2c-1,1-2,2-3,3l2-1
		c-1,1-1,1-1,1h2c-1,1-2,2-4,3l5-1c-1,1-3,2-4,4l8-2c0,3-1,4-1,6c-7,3-13,7-13,7c106,0,213,0,319,0c0,0-6-4-13-7c0-2,0-3,0-6l8,2
		c-2-2-3-3-4-4l4,1c-1-1-2-2-3-3h1c0,0,0,0,0-1l2,1c-2-1-3-2-3-3h2c-3-2-3-3-4-4l3,1c-16-18-4-9-15,0h3c-1,0-1,0-1,1l0,0
		c-1,0-1,1-3,2h1l0,0h1c-1,1-2,2-3,3l3-1c-1,1-1,1-2,1h2c-1,1-2,2-3,3l1-1v1l3-1c-1,1-2,2-4,4l8-1l0,0c0,1,0,2,0,4c-5-2-10-4-14-4
		c-2,0-5-1-7-2c0-2,0-4,0-5l0,0l7,1c-2-2-3-3-4-4l3,1v-1l1,1c-1-2-2-3-3-3h1c0-1,0-1-1-1h2c-1-1-1-2-2-3h1l0,0h1c-1-1-2-2-3-3h1
		c-1,0-1,0-1,0h2c-1-2-1-2-2-3l0,0l0,0h1c-1-1-2-3-3-4h2c-2-3-4-6-4-7c-2,3-4,7-6,8l3-1v1c-2,2-2,1-5,6l3-1c0,1-1,1-3,4h2
		c-1,1-2,2-3,3h2c0,0-1,0-1,1l2-1c-1,1-2,2-3,4l3-1c0,1-1,2-2,4c-4-3-8-5-10-7c0-2,0-5,0-9l6,3c-2-3-2-4-3-6l3,1c-1-2-2-3-3-4h2
		l-1-1l2,1c-1-2-2-3-3-5l2,1c-2-5-5-6,0-5c-5-11-2-5-6-17c-2,5-3,12-6,17h2v1l0,0c-1,1-1,2-2,4v-1v1h1c0,1-1,2-2,3h2l-1,1h1
		c0,1-1,2-2,4l1-1l-1,1l3-1c0,1-1,3-3,5l6-2v1c0,1,0,4,0,6c-2-1-10-4-17-5c0-1,0-2,0-3l8,3c-1-3-3-4-4-6l5,1c-2-1-3-3-4-4h2
		c0,0,0,0-1,0h2c-1-2-2-3-3-4h2c-2-3-3-4-4-5l4,1c-4-5-3-4-6-7v-1l4,1c-2-1-5-6-7-10c0,2-2,6-6,9h3c-1,2-2,3-3,4h1c0,1,0,1-1,1h1
		c-1,1-2,2-3,3h3c0,0,0,1-1,1h1c-1,1-2,2-3,3h1h-1h2c-1,1-2,2-3,4l2-1c0,1-1,1-1,2l1-1c0,1-1,2-3,4h1l0,0l4-1c-1,1-2,3-4,5l8-1l0,0
		c0,0,0,1,0,2c-2,0-4,0-5,0c-8,1-16,0-24-3c0-3,0-7,0-12l8,3c-2-3-3-5-4-7l4,2c-1-3-2-4-3-6l2,1c-1-1-1-1-1-1h2c-1-2-2-3-3-5l2,1
		c-3-5-3-5-4-6h4c-4-6-4-5-6-8v-1l3,1c-2-2-4-7-6-12c-1,2-2,7-5,11h2c0,2-1,4-3,5h1v1l0,0c-1,1-1,2-3,4l3-1c0,1,0,1-1,2h1
		c-1,1-2,2-3,4l1-1v1h1c-1,1-2,2-3,4l2-1c0,1,0,1-1,2h2c-1,1-2,2-3,4h1h-1l4-1c-1,2-2,3-4,6l8-2v1c0,2,0,6,0,9l0,0c-8-4-11-11-15-14
		C173,76,204,79,168,68z M40,129c2-1,4-2,6-3l-6-1C40,126,40,128,40,129z M279,129c-2-1-4-2-6-3l6-1C279,126,279,128,279,129z"/>
</g>
</svg>
