<?xml version="1.0" encoding="utf-8"?>
<!-- Generator: Adobe Illustrator 24.1.0, SVG Export Plug-In . SVG Version: 6.00 Build 0)  -->
<svg version="1.1" id="Laag_1" xmlns="http://www.w3.org/2000/svg" xmlns:xlink="http://www.w3.org/1999/xlink" x="0px" y="0px"
	 viewBox="0 0 109.6 52.6" style="enable-background:new 0 0 109.6 52.6;" xml:space="preserve">
<style type="text/css">
	.st0{fill:none;}
	.st1{fill:#191919;}
</style>
<rect x="-0.4" y="48.6" width="110.1" height="4"/>
<g>
	<path class="st0" d="M27.9,3.3c-0.5-0.2-1.2,0-1.7,0c-1,0.1-2.1,0.3-3.1,0.6c-3.2,1-5.9,3-7.7,5.8c-0.2,0.4-2.7,4.4-1.2,4.4
		c0.7,0,1.2-1.4,1.6-1.9c0.4-0.5,0.7-1,1.1-1.5c1.1-1.4,2.4-2.5,3.9-3.5C23,5.8,25.4,5,27.8,4.4C28.4,4.3,28.5,3.5,27.9,3.3z"/>
	<path class="st0" d="M84.7,3.3c-0.5-0.2-1.2,0-1.7,0c-1,0.1-2.1,0.3-3.1,0.6c-3.2,1-5.9,3-7.7,5.8c-0.2,0.4-2.7,4.4-1.2,4.4
		c0.7,0,1.2-1.4,1.6-1.9c0.4-0.5,0.7-1,1.1-1.5c1.1-1.4,2.4-2.5,3.9-3.5c2.1-1.4,4.4-2.2,6.9-2.8C85.1,4.3,85.2,3.5,84.7,3.3z"/>
	<path class="st1" d="M99.8,16.9C99.8,7.6,92.3,0,82.9,0S66,7.6,66,16.9c0,1.2,0.1,2.3,0.3,3.4c-3.7-1.6-7.7-2.6-12-2.6
		c-3.9,0-7.7,0.8-11.1,2.2c0.2-1,0.3-2,0.3-3.1C43.6,7.6,36,0,26.7,0C17.4,0,9.8,7.6,9.8,16.9s7.6,16.9,16.9,16.9c0,0,0,0,0.1,0
		c-3.4,5.1-5.4,10.8-5.4,16c0,1,16.9,2.8,34,2.8c17.3,0,32.1-2.1,32.1-2.8c0-5.2-2-10.9-5.4-16c0.3,0,0.6,0,0.8,0
		C92.3,33.8,99.8,26.2,99.8,16.9z M27.8,4.4C25.4,5,23,5.8,20.9,7.2c-1.5,1-2.8,2.1-3.9,3.5c-0.4,0.5-0.8,1-1.1,1.5
		c-0.4,0.5-0.9,1.9-1.6,1.9c-1.6,0,0.9-4,1.2-4.4C17.3,7,20,4.9,23.1,3.9c1-0.3,2-0.5,3.1-0.6c0.5,0,1.2-0.2,1.7,0
		C28.5,3.5,28.4,4.3,27.8,4.4z M77.7,7.2c-1.5,1-2.8,2.1-3.9,3.5c-0.4,0.5-0.8,1-1.1,1.5c-0.4,0.5-0.9,1.9-1.6,1.9
		c-1.6,0,0.9-4,1.2-4.4c1.8-2.8,4.5-4.8,7.7-5.8c1-0.3,2-0.5,3.1-0.6c0.5,0,1.2-0.2,1.7,0c0.6,0.2,0.5,1-0.1,1.2
		C82.2,5,79.8,5.8,77.7,7.2z"/>
</g>
</svg>
