<?xml version="1.0" encoding="utf-8"?>
<!-- Generator: Adobe Illustrator 24.1.0, SVG Export Plug-In . SVG Version: 6.00 Build 0)  -->
<svg version="1.1" id="Laag_1" xmlns="http://www.w3.org/2000/svg" xmlns:xlink="http://www.w3.org/1999/xlink" x="0px" y="0px"
	 viewBox="0 0 127.6 79.6" style="enable-background:new 0 0 127.6 79.6;" xml:space="preserve">
<path d="M105.4,75.9V45.5l-7.7-5.6v-3.1H96v39.1h-0.9V30.5h-1.7v2.9L84.5,40v35.9h-2.6V39.3h-2.1v-4.1h-7.7v4.1H70v36.6h-2.6V56.8
	h-2.3V42.1h-2v-16h-0.9V0h-1.3v14.9h-1.2v20.7h-1.6v29h-1.4v11.3h-2.6V44.8h-2.3c1.1-1.7,1.1-5.6,1.1-5.6
	c-1.1,4.7-10.2,3.5-10.2,3.5c0.4,0.9,1.6,1.6,3.1,2.1h-3.1v31.1h-1c-0.4-23-12.1-29.9-15.4-31.4v-2.7h-1.8v34.1h-4.1v3.7h4.2h0.9
	h0.9h15.3h42.8h8.9h0.9h0.9h0.9H97h0.7h7.7h5.7v-3.7H105.4z"/>
<polygon points="9.7,75.9 -0.9,75.9 -0.9,79.6 9.7,79.6 127.6,79.6 127.6,75.9 "/>
</svg>
