<?xml version="1.0" encoding="utf-8"?>
<!-- Generator: Adobe Illustrator 24.1.0, SVG Export Plug-In . SVG Version: 6.00 Build 0)  -->
<svg version="1.1" id="Laag_1" xmlns="http://www.w3.org/2000/svg" xmlns:xlink="http://www.w3.org/1999/xlink" x="0px" y="0px"
	 viewBox="0 0 100 47.7" style="enable-background:new 0 0 100 47.7;" xml:space="preserve">
<style type="text/css">
	.st0{fill:none;stroke:#000000;stroke-miterlimit:10;}
</style>
<path class="st0" d="M-11-17.4"/>
<g>
	<path d="M30.5,12.8c-1.5,0-2.9,2.4-3.8,6.3l7.5-0.2C33.3,15.1,32,12.8,30.5,12.8z"/>
	<path d="M89.5,23.4c1.3,0,2.4-1.1,2.4-2.5s-1-2.5-2.4-2.5c-1.3,0-2.4,1.1-2.4,2.5C87.2,22.3,88.2,23.4,89.5,23.4z M89.5,20.5
		c0.2,0,0.4,0.2,0.4,0.4c0,0.2-0.2,0.4-0.4,0.4c-0.2,0-0.4-0.2-0.4-0.4S89.3,20.5,89.5,20.5z"/>
	<path d="M93.6,45.2v-0.4h0.1V42h-0.4v-1.9h0.4v-2.8h-0.4v-1.9h0.4v-2.8h-0.4v-1.9h0.4v-2.8h-0.4v-2.3h0.5v-7.7h0.1V17h-0.1
		l-0.6-4.5v-1.3H93v1.7l-0.4,3.2l-1.4-3v-1.7V9.6H91v1.3l-1.5-4.3V5.5h-0.2v1.1L88,10.9V9.5h-0.2v1.7v1.7l-1.4,3h-0.1l-0.5-3.5v-1.3
		h-0.2v1.8l-0.5,4.2H85v0.8h0.1v7.7h0.5v2.2h-0.4v2.8h0.4v1.9h-0.4v2.8h0.4v1.8h-0.4v2.8h0.4v1.9h-0.4v2h-1.8v-6.6v-5.8h-8.3v-2.3
		c0.3-0.4,0.6-0.7,0.9-1.1c0.1-0.1,0.1-0.2,0.2-0.2l2.4-0.1c-0.1,0.6,0.2,1.4,0.8,1.8c0.8,0.5,1.8,0.2,2.2-0.6
		c0.5-0.8,0.2-1.9-0.6-2.4c-0.6-0.4-1.3-0.3-1.8,0.1l-1.3-2c0.4-1,0.7-2.1,0.8-3.2c0-0.1,0-0.2,0-0.4l1.9-1.2
		c0.3,0.6,0.8,1.1,1.6,1.1c0.9,0,1.7-0.7,1.7-1.8s-0.6-1.6-1.5-1.6c-0.6,0-1.1,0.4-1.4,0.8l-2-1.1c-0.2-1.1-0.4-2.2-0.8-3.2
		c0-0.1-0.1-0.2-0.1-0.4l1-2c0.6,0.4,1.2,0.5,1.9,0.1c0.8-0.5,1-1.6,0.6-2.4c-0.5-0.8-1.5-1.1-2.2-0.6c-0.6,0.4-0.8,0.9-0.8,1.6
		l-2.1-0.2c-0.6-0.8-1.4-1.7-2.2-2.4c-0.1-0.1-0.2-0.2-0.3-0.3h0.1L74,5.2c0.6,0.1,1.3-0.3,1.7-0.8c0.5-0.8,0.2-1.9-0.6-2.4
		c-0.8-0.5-1.8-0.2-2.2,0.6c-0.3,0.6-0.3,1.2,0,1.8l-2,1.4c-1.1-0.5-2.2-0.7-3.4-0.9l0.1-0.1l-1.1-1.7c0.7-0.5,0.9-1.5,0.5-2.3
		c-0.5-0.8-1.5-1.1-2.2-0.6c-0.8,0.5-1,1.6-0.6,2.4c0.2,0.3,0.4,0.5,0.6,0.6L63.9,5c-1.2,0.2-2.3,0.5-3.4,0.9V5.8l-1.6-1
		C59,4.7,59,4.7,59.1,4.6c0.5-0.8,0.2-1.9-0.6-2.4S56.7,2,56.3,2.8s-0.2,1.9,0.6,2.4c0.2,0.1,0.4,0.2,0.6,0.2v2.3
		c-0.1,0.1-0.2,0.1-0.2,0.2c-0.8,0.7-1.6,1.6-2.3,2.4v-0.2h-2c0-0.9-0.7-1.8-1.7-1.8s-2,0.8-2,1.8c0,0.9,0.7,1.8,1.7,1.8
		c0.3,0,0.6-0.1,0.8-0.3l1,1.9c0,0.1-0.1,0.2-0.1,0.3c-0.4,1-0.6,2.1-0.8,3.2l-0.1-0.1l-1.9,1.2c-0.5-0.8-1.5-1.1-2.2-0.6
		c-0.8,0.5-1,1.6-0.6,2.4c0.5,0.8,1.5,1.1,2.2,0.6c0.3-0.2,0.6-0.5,0.6-0.8l1.9,1.2c0,0.1,0,0.2,0,0.4c0.1,0.5,0.2,1,0.3,1.5
		c-2.6,1.2-4.5,4.1-4.6,7.5h-0.3c-1.3,0-2.3,1-2.3,2.3v3.5c0,0.4,0.1,0.8,0.3,1.2h-1.1V21l-2.4-1.7v-5.2l-4-5.8l1.7,5.6L37,17.6
		v27.1h-1.9c0.5-3.2,0.7-6.9,0.7-10.8c0-5.8-0.6-10.9-1.6-14.7l-7.5,0.2c-0.9,3.7-1.5,8.9-1.5,14.5c0,0.9,0,1.8,0,2.7
		c-1.6-1.9-3-3.9-3.8-5.2v-1.9h-0.3v-1.7h0.4v-5.7h0.1v-0.6h-0.1l-0.4-3.3v-1H21v1.2l-0.3,2.3l0,0l-1.1-2.2v-1.2l0,0l0,0V16h-0.1v1
		l-1.2-3.1v-0.8h-0.1v0.8l-1.2,3V16h-0.1v1.3l0,0l0,0v1.2l-1.1,2.2h-0.1l-0.4-2.6v-0.9h-0.1v1.3l-0.4,3h-0.1v0.6h0.1V27H2.1v0.7
		h12.7v0.1H2.1v1.7h12.8v2h0.3V33h-0.3v2h0.3v1.5h-0.3v1.7H2.1v1.2l12.2,3.3H14v1.7V48h8.3v-3.6V43h3.4c0.1,0.8,0.2,1.5,0.3,2.2l0,0
		v2.7h0.1v0.2H35h1.9H38h2.2h0.9h2.4H44V48h13.6h1.8H60h6h9.3h8.3h0.6h1.5h7.7h1.5v-2.3v-0.4L93.6,45.2L93.6,45.2z M79.2,17.6
		l1.8,0.9c0,0.1-0.1,0.3-0.1,0.5c0.1,0.1,0.1,0.1,0.1,0.2l-1.8,1.1c0-0.5,0.1-0.8,0.1-1.3S79.3,18.1,79.2,17.6z M4.4,39.3l-1.7-0.5
		H5L4.4,39.3z M5.2,39.6l0.4-0.4L6,39.8L5.2,39.6z M6.2,38.9h1.1l-0.6,0.8L6.2,38.9z M7.2,40.1l0.6-0.9l0.4,1.1L7.2,40.1z M8.4,38.9
		h1.2L8.8,40L8.4,38.9z M9.2,40.6l0.9-1.2l0.5,1.6L9.2,40.6z M10.6,38.9h1.3l-0.7,1.7L10.6,38.9z M11.6,41.3l0.7-1.6l0.4,1.9
		L11.6,41.3z M12.8,38.9H14l-0.9,2L12.8,38.9z M15.2,40h-0.3v2H15v0.1l-1.4-0.4l1.3-2.9h0.4V40H15.2z M89.5,18
		c1.5,0,2.7,1.3,2.7,2.9s-1.2,2.9-2.7,2.9s-2.7-1.3-2.7-2.9S88,18,89.5,18z M77.8,13.8l-1.4,1.9c-0.2-0.7-0.5-1.4-0.8-2.1L77.8,13.8
		z M75.8,13.1l1.3-0.8c0.2,0.4,0.4,0.6,0.5,1L75.8,13.1z M75.6,24.6c0.4-0.6,0.6-1.4,0.8-2.1l1.4,1.9L75.6,24.6z M77.6,24.9
		c-0.1,0.3-0.3,0.6-0.5,0.9l-1.3-0.7L77.6,24.9z M67.2,13.4c0.4,0.1,0.6,0.3,1,0.5l-2,3.7L67.2,13.4z M65.8,17.5v-4.3
		c0.4-0.1,0.7,0,1,0.1L65.8,17.5z M58.6,23.5l1.8-1.1c0.2,0.4,0.5,0.6,0.7,1l-1.3,1.3C59.5,24.3,59.1,23.9,58.6,23.5z M64.1,19.7
		l-3.6,2.1c-0.2-0.4-0.3-0.6-0.4-1L64.1,19.7z M60.1,20.4C60,20.1,60,19.7,60,19.3h4.1L60.1,20.4z M64.3,20.1l-2.8,3
		c-0.3-0.3-0.5-0.6-0.6-0.9L64.3,20.1z M60.1,25.1l1.3-1.3c0.3,0.3,0.6,0.6,0.9,0.7L61,26.8C60.8,26.2,60.5,25.6,60.1,25.1z
		 M63.5,25.1l-1.3,4.8c-0.1,0-0.2-0.1-0.3-0.1c-0.1-0.9-0.3-1.7-0.5-2.5l1.4-2.6C63,24.8,63.2,25,63.5,25.1z M63,24.4l1.5-2.9
		l-0.8,3.2C63.4,24.6,63.2,24.5,63,24.4z M61.9,30.2L61.9,30.2L61.9,30.2L61.9,30.2z M65.4,31.4V33c-0.4,0-0.7,0-1-0.1L65.4,31.4z
		 M64.3,32.3c-0.1-0.7-0.4-1.3-0.9-1.7c0.6,0.2,1.3,0.2,1.9,0.3L64.3,32.3z M64.3,36.1v-1.9l0.8,1.4C64.8,35.6,64.5,35.8,64.3,36.1
		L64.3,36.1z M70.1,22.6h-0.9l-2.4-2.5l3.5,2.1C70.3,22.3,70.2,22.4,70.1,22.6z M68.6,22.6h-0.8l-1.2-2.1L68.6,22.6z M70.7,22.6
		c0-0.1,0.1-0.1,0.1-0.2l0.3,0.2H70.7z M70.7,21.8l-3.6-2.1l4,1.1C71,21.2,70.8,21.5,70.7,21.8z M67.2,19.3h4.1
		c0,0.4-0.1,0.7-0.1,1.1L67.2,19.3z M67.2,18.9l4-1.1c0.1,0.4,0.1,0.7,0.1,1.1H67.2z M67,18.4l3.6-2.1c0.2,0.4,0.3,0.6,0.4,1
		L67,18.4z M66.8,18l3-3c0.3,0.3,0.5,0.6,0.6,0.9L66.8,18z M66.6,17.7l2-3.7c0.3,0.2,0.6,0.5,0.8,0.6L66.6,17.7z M66.7,21.5l0.6,1.1
		H67L66.7,21.5z M66,25c-0.1,0-0.1,0-0.2,0.1v-2l0.2,0.6V25z M66,25.4v5c-0.1,0-0.1,0-0.2,0v-5C65.9,25.4,65.9,25.4,66,25.4z
		 M66,31.6v1.3c-0.1,0-0.1,0-0.2,0v-1.6L66,31.6z M66,33.4V35l-0.3,0.6h-0.1l-1.3-2.2c0.4,0,0.8,0.1,1.3,0.1
		C65.7,33.4,65.9,33.4,66,33.4z M65.4,25.1C65.2,25,65,25,64.8,25l0.6-1.9V25.1z M65.4,25.4v5c-0.6,0-1.4-0.1-2-0.3l1.4-4.8
		C64.9,25.3,65.2,25.4,65.4,25.4z M62.6,24.1c-0.3-0.2-0.6-0.5-0.8-0.6l2.9-3.1L62.6,24.1z M60.8,15.9c0.2-0.3,0.4-0.6,0.6-0.9
		l2.9,3.1L60.8,15.9z M64.1,18.4l-4-1.1c0.1-0.4,0.3-0.7,0.4-1L64.1,18.4z M64.1,18.9H60c0-0.4,0.1-0.7,0.1-1.1L64.1,18.9z M60.3,22
		l-2,1.2c-0.7-0.4-1.4-0.8-2.2-0.9V22l3.8-1.1C59.9,21.3,60.1,21.6,60.3,22z M56,19.3c1.4,0,3.5,0,3.5,0c0,0.5,0.1,0.8,0.2,1.2
		l-3.7,1V19.3L56,19.3L56,19.3z M59.5,18.9h-3.6l-0.6-2.4l4.3,1.2C59.6,18,59.6,18.5,59.5,18.9z M71.8,22.6L71,22.1
		c0.2-0.4,0.4-0.7,0.5-1.1l4.6,1.3c-0.2,0.8-0.5,1.5-0.8,2.1v-1.9L71.8,22.6L71.8,22.6z M76.2,21.8l-4.6-1.3
		c0.1-0.4,0.1-0.8,0.1-1.2h4.8C76.5,20.2,76.4,21,76.2,21.8z M71.5,17.6l4.6-1.3c0.2,0.8,0.3,1.7,0.3,2.5h-4.7
		C71.7,18.4,71.6,18,71.5,17.6z M76.1,15.9l-4.6,1.3c-0.2-0.4-0.3-0.7-0.5-1.1l4.2-2.5C75.6,14.3,75.9,15.1,76.1,15.9z M70.7,15.7
		c-0.2-0.4-0.5-0.6-0.7-1l3.3-3.5c0.6,0.6,1,1.3,1.5,2L70.7,15.7z M69.8,14.4c-0.3-0.3-0.6-0.6-0.9-0.7l2.4-4.4
		c0.6,0.5,1.3,0.9,1.9,1.6L69.8,14.4z M68.5,13.4c-0.4-0.2-0.7-0.4-1.1-0.5l1.2-4.8c0.7,0.3,1.6,0.6,2.2,1L68.5,13.4z M66.9,12.8
		c-0.4-0.1-0.7-0.2-1.2-0.2v-5c0.8,0,1.7,0.1,2.4,0.4L66.9,12.8z M66.2,19c0,0.4-0.3,0.6-0.6,0.6c-0.4,0-0.6-0.3-0.6-0.6
		c0-0.4,0.3-0.6,0.6-0.6C65.9,18.5,66.2,18.8,66.2,19z M64.3,13.3c0.4-0.1,0.7-0.1,1-0.2v4.3L64.3,13.3z M65.4,12.6
		c-0.4,0-0.8,0.1-1.2,0.2L63,8c0.7-0.2,1.6-0.3,2.4-0.4V12.6z M65,17.6l-2-3.7c0.3-0.2,0.6-0.3,1-0.5L65,17.6z M64.6,17.7l-2.9-3.1
		c0.3-0.3,0.6-0.5,0.8-0.6L64.6,17.7z M61.5,14.4l-3.3-3.5c0.6-0.6,1.2-1.1,1.9-1.6l2.3,4.4C62,13.8,61.7,14.1,61.5,14.4z
		 M61.2,14.7c-0.3,0.3-0.5,0.6-0.7,1l-4.2-2.5c0.5-0.7,0.9-1.4,1.5-2L61.2,14.7z M60.3,16.1c-0.2,0.4-0.4,0.7-0.5,1.1l-4.5-1.3
		l-0.1-0.2c0.2-0.8,0.5-1.4,0.9-2.1L60.3,16.1z M55,14.9l-0.3-1.2l0.9-0.1C55.4,13.9,55.2,14.4,55,14.9z M54.6,13.2L54.6,13.2
		L54.6,13.2l-1,0.1c0.2-0.4,0.3-0.6,0.5-1l1.3,0.8L54.6,13.2z M54.5,13.7l-0.3,1.2l-0.9-1L54.5,13.7z M54.1,15.4L54,15.6l-1.1-0.3
		c0-0.4,0.1-0.7,0.3-1L54.1,15.4z M53.2,19.5v0.3l-0.8,0.6c0-0.4,0-0.7,0-1.1h0.8V19.5L53.2,19.5z M53.2,20.3v0.8l-0.7-0.3
		L53.2,20.3z M75.3,28.5v-0.7l0.5,0.1C75.6,28.1,75.5,28.3,75.3,28.5z M75.3,27.4v-1.9l0.7,2.1L75.3,27.4z M75.6,25.4l1.3,0.8
		c-0.2,0.2-0.4,0.6-0.6,0.8L75.6,25.4z M79.2,26.9c0,0.1-0.1,0.1-0.1,0.2c0,0,0,0.1-0.1,0.1l-2.2,0.1c0.5-0.7,0.9-1.5,1.3-2.3
		L79.2,26.9z M78,24l-1.1-1.5l1.5,0.4C78.2,23.2,78.2,23.6,78,24z M78.4,22.5L77,22.1l1.6-0.6C78.6,21.7,78.5,22.1,78.4,22.5z
		 M76.6,21.7c0.2-0.7,0.3-1.5,0.3-2.2l1.9,1.4L76.6,21.7z M78.8,20.4l-1.5-1.1h1.5C78.8,19.7,78.8,20.1,78.8,20.4z M78.9,18.9h-1.5
		l1.4-1C78.8,18.2,78.8,18.5,78.9,18.9z M76.9,18.7c0-0.7-0.1-1.5-0.3-2.2l2.1,0.8L76.9,18.7z M78.4,15.7c0.1,0.4,0.2,0.7,0.2,1.1
		l-1.7-0.6L78.4,15.7z M78.3,15.2l-1.4,0.4l1.1-1.4C78.2,14.6,78.2,15,78.3,15.2z M78.7,10.6c0,0.1,0.1,0.3,0.2,0.4
		c0,0.1,0.1,0.1,0.1,0.2l-0.9,1.9c-0.4-0.8-0.8-1.6-1.3-2.3L78.7,10.6z M76.9,11.9l-1.3,0.7l0.7-1.6C76.6,11.3,76.8,11.6,76.9,11.9z
		 M75.2,12.8c-0.4-0.6-0.8-1.2-1.3-1.8l2.2-0.4L75.2,12.8z M75.8,10.2L74,10.5l1.1-1.1C75.4,9.7,75.6,10,75.8,10.2z M74.1,8.4
		c0.3,0.2,0.5,0.5,0.7,0.6l-1,1.1L74.1,8.4z M73.3,10.4c-0.6-0.6-1.1-1-1.7-1.4l2-0.9L73.3,10.4z M71.7,8.6l0.7-1.4
		c0.3,0.2,0.6,0.4,0.9,0.6L71.7,8.6z M72.9,4.9C73,5,73.1,5.1,73.3,5.2c0.1,0,0.1,0.1,0.2,0.1l0.1,2.1c-0.7-0.6-1.5-0.9-2.2-1.4
		L72.9,4.9z M72,7l-0.7,1.3l-0.2-1.9C71.5,6.6,71.8,6.8,72,7z M70.9,8.6C70.3,8.2,69.6,8,69,7.8l1.8-1.5L70.9,8.6z M69.2,5.7
		c0.4,0.1,0.6,0.2,1,0.4l-1.4,1.2L69.2,5.7z M68.8,5.6l-0.4,1.5l-0.6-1.7C68.1,5.4,68.5,5.5,68.8,5.6z M67.4,5.3l0.7,2.2
		c-0.6-0.2-1.4-0.3-2.1-0.3L67.4,5.3C67.3,5.3,67.3,5.3,67.4,5.3z M65.8,6.7V5.1c0.4,0,0.6,0,1,0.1L65.8,6.7z M65.1,3.4
		c0.3,0.1,0.6,0.1,1,0l0.8,1.5c-0.5,0-0.8-0.1-1.3-0.1s-0.8,0-1.3,0.1L65.1,3.4z M65.4,5.2v1.6l-1-1.5C64.7,5.3,65.1,5.2,65.4,5.2z
		 M63.9,5.3l1.4,1.9c-0.7,0-1.5,0.1-2.1,0.3L63.9,5.3z M63.3,5.4l-0.6,1.8l-0.4-1.6C62.7,5.5,63,5.4,63.3,5.4z M62,5.7l0.4,1.6
		L61,6.1C61.3,6,61.6,5.8,62,5.7z M60.5,6.2l1.8,1.5c-0.6,0.2-1.4,0.6-1.9,0.8L60.5,6.2z M62.5,8l1.3,4.9c-0.4,0.1-0.7,0.3-1.1,0.5
		L60.3,9C61,8.7,61.7,8.3,62.5,8z M59.9,8.3L59.2,7c0.3-0.2,0.6-0.4,0.9-0.5L59.9,8.3z M59.6,8.6l-1.7-0.7c0.3-0.2,0.6-0.5,0.9-0.6
		L59.6,8.6z M57.7,5.4c0.3,0,0.6-0.1,0.7-0.3L59.9,6c-0.8,0.4-1.6,0.8-2.2,1.4V5.4z M59.6,9c-0.6,0.4-1.2,0.8-1.7,1.4l-0.3-2.3
		L59.6,9z M57.1,8.4l0.3,1.8l-1-1.1C56.6,8.8,56.9,8.7,57.1,8.4z M56.1,9.4l1.1,1.1l-1.8-0.3C55.6,10,55.9,9.7,56.1,9.4z M57.3,11
		c-0.5,0.6-0.9,1.1-1.3,1.8l-0.9-2.1L57.3,11z M54.8,11.1l0.7,1.7l-1.3-0.7C54.4,11.6,54.6,11.3,54.8,11.1z M52.3,11.3
		c0.2-0.2,0.3-0.5,0.4-0.6h1.9c-0.5,0.7-0.9,1.5-1.3,2.3L52.3,11.3z M52.7,15.7l1.2,0.3l-0.1,0.2l-1.3,0.5
		C52.6,16.4,52.6,16.1,52.7,15.7z M53.7,16.8L53.4,18l-1-0.7L53.7,16.8z M52.4,17.8l1,0.7l-0.1,0.3h-1
		C52.4,18.5,52.4,18.1,52.4,17.8z M52,20.3l-1.8-1c0-0.2,0-0.4,0-0.6l1.8-1c0,0.5-0.1,0.9-0.1,1.4S52,19.9,52,20.3z M52.7,22.5
		c-0.1-0.4-0.1-0.7-0.2-1l0.6,0.3v0.6C53.1,22.4,52.9,22.4,52.7,22.5L52.7,22.5z M21.4,42.4v-0.3h0.1v-2h-0.3v-1.5h0.3v-2h-0.3v-1.5
		h0.3v-2h-0.3v-1c0.3,0.4,0.7,1.1,1.3,1.9l0.2,8.4H21.4z M23.3,42.4L23.1,35c0.3,0.5,0.7,0.9,1.1,1.4l0.2,6H23.3z M25,42.4l-0.1-5.2
		c0.1,0.2,0.3,0.4,0.5,0.5c0.1,1.6,0.2,3.2,0.3,4.7H25z M35,45.2L35,45.2L35,45.2L35,45.2z"/>
</g>
</svg>
