<?xml version="1.0" encoding="utf-8"?>
<!-- Generator: Adobe Illustrator 24.1.0, SVG Export Plug-In . SVG Version: 6.00 Build 0)  -->
<svg version="1.1" id="Laag_1" xmlns="http://www.w3.org/2000/svg" xmlns:xlink="http://www.w3.org/1999/xlink" x="0px" y="0px"
	 viewBox="0 0 835.4 555" style="enable-background:new 0 0 835.4 555;" xml:space="preserve">
<style type="text/css">
	.st0{fill-rule:evenodd;clip-rule:evenodd;}
</style>
<g>
	<path class="st0" d="M479,295h12v-11l18-18h23v29v7v94h14v-19h67v135h3v4h5v-14h41v-5c0,0,0-33,2-53s-3-46-3-52c-1-6,2-55,4-70
		s-1-86-2-95c-1-10-10-32-10-32s-14-14-10-24c5-10,11-18,11-18s-7-21-6-33c0-12-1-18-1-18s-4-8-4-12c0-2-1-5-1-5s-4-7-4-13
		c1-7,3-10,3-10s-3-3-3-6c-4-1-7-3-7-5s0-5,0-8s5-4,11-5c-19-16-5-35,8-38c-3,3-4,17,10,11c2,2,16,19-1,27c7,0,10,2,10,5s0,6,0,8
		c0,3-3,4-9,5c0,4-3,5-4,8c0,0,6,6,6,13c-1,6,0,16,0,20s9,24,10,36c0,2,0,5,0,8c1,3,3,10,4,11c2,2,3,7,3,12c1,5,6,11,8,13
		c3,2,6,3,6,3l1-11c0,0-1-3-2-11c-1-1-2-3-2-4c-1,0-1-1-1-1s-6-1-10-1c-1-2-1-3-2-5c5-1,12,0,12,0v-2l-13-6c-1,0-2-3-2-4l19,5l2-3
		c0,0-14-21-12-20c1,0,20,17,20,17c3-1,3-1,6-1l4-27l4,27c2,0,4,0,6,1c2-2,15-14,19-17c1-1-9,17-11,20c1,0,1,1,2,2l26-6l-22,12
		c1,1,0,1,1,2c8,1,23,2,24,3c1,0-16,3-24,4c0,1-1,1-1,3c0,3,1,7,0,9c-1,3-2,11,0,16c1,3,3,10,5,15c5,2,11,4,13,8c6,8,4,21,10,26
		c5,6,15,11,15,11l11-14l25,10l3,4l-7,13c0,0,4,4,2,8s-5,12-10,14c-4,3-7,6-7,6c-9,25-8,22-28,33c-1,0,6,51,4,52c-3,2-6,10-6,10
		s5,78,1,82c-3,5-4,10-4,10l1,29l1,3h56v14h18v39H616h-9h-5H0c0-30,0-60,0-91h6v-43h25v43h6v36h8v34h6V354h63v48h11V264h5v-56h6v-29
		h15l15,15v14h8v56h12v169h10v67h7v-90h13v-35h10v-38h6v-56h4v56h6v38h11v35h12v80h26v27h9v-36h36v30h6v23h6V402h41v88h10V321h5v-5
		h4v-4h15v-19h2v-24h1v24h1v19h16v4h3v5h6v86h14v91h13V295z M634,44c9-3,19-4,28-3c1,0,6,3,0,3C658,43,628,45,634,44z M651,105
		c-2,1-2,25,1,28c4,7,2,12,6,2c1-3-5-21-4-26C654,107,651,105,651,105z M652,17c2,3,6,3,9,7s-4,9-5,4c-1-4-2-6-3-9
		C652,18,652,17,652,17z M644,8c-5,9-7,18,4,25c0,0,8,2,4-4C648,21,645,18,644,8L644,8z M735,213c0,8-16,40-22,48s-17,22-27,24
		c-4,1-20,4-14-6c2-5,29-15,39-31C715,239,735,223,735,213z M690,191c6-8,9,2,25,2c7,0,15,5,14,13c-2,12-60,73-57,53
		c0-4,16-12,21-19c7-10,6-9,9-20c1-1-30,37-31,18c0-3,16-10,19-16c2-2,16-26,3-13c-3,4-10,13-10,11C682,215,687,195,690,191z
		 M680,178c5,13-23,38-6,35c6-1,17-26,7-34L680,178z M645,176c0-1,4,3,7,3c15,0,24-25,24-21c0,13-7,23-23,23
		C649,182,645,177,645,176z M741,203c0,18,1,27-6,44c-11,23-15,29-36,43c-7,6-21,11-23,12c1,1,32,10,40,4c12-10,14-12,20-27
		c5-14,10-56,7-71C742,206,741,205,741,203z M717,164c0,1-1,1-2,1c-2,0-3,1-3,1l2,2v1c-1,1-3,0-4,2c0,1,4-1,5,2c0,0,2,3,2,4
		s-1,1-2,1c-2,0-9-1-11-3c-1-3-2-9-1-10s6-4,7-4s2-3,1-4c0-1-5-2-5-2s5-12,18-1c0,0-6,1-7,2S717,163,717,164z M722,169c-1,1-4-7-2-7
		c0,0,5,0,5,1S724,169,722,169z M720,147c-11-2-11,1-20,7c-3,2-4-4-4-4c3-5,11-8,14-8c3-1,15,1,17,3c3,2,5,6,4,7
		C731,153,721,147,720,147z"/>
</g>
</svg>
