<?xml version="1.0" encoding="utf-8"?>
<!-- Generator: Adobe Illustrator 24.1.0, SVG Export Plug-In . SVG Version: 6.00 Build 0)  -->
<svg version="1.1" id="Laag_1" xmlns="http://www.w3.org/2000/svg" xmlns:xlink="http://www.w3.org/1999/xlink" x="0px" y="0px"
	 viewBox="0 0 331.8 218.9" style="enable-background:new 0 0 331.8 218.9;" xml:space="preserve">
<style type="text/css">
	.st0{fill:#020203;}
</style>
<path class="st0" d="M298.6,215.7v-20.5h-9.5v-24h-18.8v12.4H264v-23.1l-12.4-4.3v44.5h-2.3v-0.6h0.3c0.3,0,0.6-0.3,0.6-0.6
	s-0.3-0.6-0.6-0.6h-0.3v-0.9c0.3,0,0.3-0.3,0.3-0.6c0-0.3-0.3-0.6-0.3-0.6v-7.5h0.9v-0.9h-0.3c0-0.3-0.3-0.6-0.6-0.6h-4.6v-3.8v-1.2
	h0.9v-0.9h-0.6v-0.6h-0.9c0-3.5-2.6-7.2-6.4-8.7h0.3v-2.9h-0.9v-0.9h-1.7v-3.5v-0.9h0.6v-0.3h0.3v-0.9H236v-1.2
	c0-0.6-0.6-0.9-0.9-0.9H234v-2h-0.9v2h-0.9c-0.6,0-0.9,0.3-0.9,0.9v1.2h-0.3v0.9h0.3v0.3h0.3v0.9v3.5h-1.4v0.9h-0.9v2.9
	c-3.8,1.7-6.4,5.2-6.4,8.7h-0.9v0.6h-0.3v0.9h0.6v1.2v3.8h-4.6c-0.3,0-0.6,0.3-0.6,0.6h-0.3v0.9h0.9v7.5c-0.3,0-0.3,0.3-0.3,0.6
	c0,0.3,0.3,0.6,0.3,0.6v0.9h-0.3c-0.3,0-0.6,0.3-0.6,0.6s0.3,0.6,0.6,0.6h0.3v0.6h-2.6l-0.6-1.7v-4.6h-1.2l-2.9-12.1h3.2l1.2-3.5
	h-1.2c0-0.9-0.6-1.4-1.7-1.4h-4.9c0,0-4.3-17-8.1-36.1h2.9l-0.9-4.6h-2.9c-1.7-8.9-3.2-17.6-4-25.4l-0.9-13l-4.6-70.7l1.4-1.7h0.6
	v-2h-1.2v-2.6h-0.6c0-0.3,0-0.6,0-0.6c0-0.9-0.6-1.7-1.2-2.3l-2-18.5l-2,18.5c-0.6,0.6-0.9,1.4-0.9,2c0,0.3,0,0.6,0,0.6h-0.6v2h-1.2
	v2h0.6l1.4,1.7l-4.3,70.1l-0.9,14.1c-0.9,7.5-2.3,16.2-4,24.8h-3.5l-0.9,4.6h3.5c-3.5,19.1-7.8,36.1-7.8,36.1h-5.8
	c-0.9,0-1.7,0.6-1.7,1.4h-1.4l1.2,3.5h3.2l-5.2,22.2h-6.4v-3.5h-1.2v-5.5h-0.9v-8.4h-1.4v-14.1h-0.3v-0.9h-0.9v-1.2h-10.1v1.2h-0.6
	v1.2h-0.9v14.1h-0.6h-2.6h-1.2h-2.9h-0.3v-13.9h-0.6v-1.4h-0.6v-1.2h-10.1v1.2h-0.6v1.2H113v13.9h-1.4v8.4h-0.9v5.5h-1.4v6.6h-4.6
	v-6.6h0.6c0.3,0,0.3-0.3,0.3-0.3l-0.3-0.3h-0.6v-14.7h0.3l0,0l0.9-3.2h0.9v-2.6h-1.7v-4.3h0.3v-1.2h-1.4v-0.9h-1.4v0.9h-1.7v-0.9
	h-1.4v0.9h-1.7v-0.9H96v0.9h-1.7v-0.9h-1.4v0.9h-1.7v-0.9h-1.4v0.9h-1.7v-0.9h-1.4v0.9h-1.7v-0.9h-0.9v0.9h-1.7v-0.9H81v0.9h-1.7
	v-0.9h-1.4v0.9h-1.7v-0.9h-1.4v0.9h-1.7v-0.9h-1.4v0.9h-1.7v-0.9h-1.4v0.9h-1.7v-0.9h-1.4v0.9h-1.4v1.2h0.3v4.3h-1.7v2.6h0.9
	l0.9,3.2h0.3v14.7h-0.6c-0.3,0-0.3,0.3-0.3,0.3s0.3,0.3,0.6,0.3h0.6v3.8h-6.4v-41.6l-15.9,5.2v15.3h-6.1v21.1h-4v11.8h-2.3v4.9h2.3
	h4h6.1H46h4h4.6h3.2h10.7h22.2h10.7l0,0h13.9l0,0h30h9.8h4.3h6.9h2.6h5.5h0.6h5.2h2.9h6.1h1.7h6.9h7.8h4.3h4h0.3h8.4h23.4h5.2h5.2
	h3.5h3.8h6.4h2.9h14.4h11h4v-4.9H298.6z M186,79.5l4.6,54.8h-1.7h-5.8h-1.7L186,79.5z M181.7,146.4h8.9c1.7,13.6,4,25.4,6.9,30.6
	h-22.2C178,170.7,180.3,159.1,181.7,146.4z M184.9,188.6c9.5,0,17.6,4.6,21.1,11.3v4h-7.8v-3.2h-8.9v8.1h-6.1v-14.7h-8.9v7.8h-8.1
	v4.9h-4l0,0C162.1,196.7,172.2,188.6,184.9,188.6z M78.1,215.7v-15.6c0,0,0,0,0-0.3h0.6c0.3,0,0.3-0.3,0.3-0.3l-0.3-0.3h-0.6
	c0.6-3.2,3.2-5.8,6.4-5.8c3.2,0,5.8,2.6,6.4,5.8h-0.3c-0.3,0-0.3,0.3-0.3,0.3l0.3,0.3h0.6c0,0,0,0,0,0.3v15.3h-13V215.7z"/>
<polyline class="st0" points="-2.6,215.7 -2.6,220.6 11.6,220.6 334.9,220.6 334.9,215.7 9,215.7 "/>
</svg>
