<?xml version="1.0" encoding="utf-8"?>
<!-- Generator: Adobe Illustrator 24.1.0, SVG Export Plug-In . SVG Version: 6.00 Build 0)  -->
<svg version="1.1" id="Laag_1" xmlns="http://www.w3.org/2000/svg" xmlns:xlink="http://www.w3.org/1999/xlink" x="0px" y="0px"
	 viewBox="0 0 86.7 58" style="enable-background:new 0 0 86.7 58;" xml:space="preserve">
<style type="text/css">
	.st0{fill:#020203;}
</style>
<path class="st0" d="M61.1,57.8c0.1-1.5-0.3-2.9-0.2-4.4c0.1-1.3,0.8-2.5,2.6-2.4c0.9,0.1,1.9,1,2,1.8c0.2,1,0.2,2.1,0.2,3.1
	c-0.1,1.1,0.1,3-0.1,4.2c0.8,0,1.7-0.1,2.5-0.1c-0.2-0.5-0.3-1.9-0.2-2.2c0.1-1.3-0.3-2.7-0.2-4c0.1-1.2,0.7-2.3,2.1-2.2
	c0.7,0,1.5,0.9,1.7,1.6c0.2,0.9,0.2,1.9,0.1,2.8c-0.1,1,0,2.7-0.1,3.8c0.7,0,1.3-0.1,2-0.1c-0.1-0.6-0.1-1.4-0.1-1.7
	c0.1-1.3-0.2-2.6-0.1-3.9c0.1-1.2,0.5-2.2,1.5-2.2c0.5,0,1.1,0.8,1.2,1.6c0.1,0.9,0.1,1.8,0.1,2.8c0,0.8,0,2.2,0,3.2
	c0.5,0,1.1-0.1,1.6-0.1c-0.1-0.5-0.1-1.6-0.1-1.9c0-1.1-0.1-2.3-0.1-3.4c0-1,0.4-2,1.2-1.9c0.4,0,0.9,0.7,1,1.4
	c0.1,0.8,0.1,1.6,0.1,2.4c0,0.8,0,2.2,0,3.2c0.4,0,0.8-0.1,1.1-0.1c-0.1-0.5-0.1-1.4-0.1-1.7c0-1.1-0.1-2.1-0.1-3.2
	c0-1,0.3-1.8,0.8-1.8c0.3,0,0.6,0.7,0.6,1.3c0.1,0.7,0.1,1.5,0.1,2.2s0,2.1,0,2.9c0.4,0,0.7-0.1,1-0.1c0-0.5,0-1.2,0-1.4
	c0-1-0.1-2,0-2.9c0-0.9,0.2-1.7,0.6-1.6c0.2,0,0.4,0.6,0.5,1.2c0.1,0.7,0.1,1.4,0,2.1c0,0.7,0,1.8,0,2.6c0.3,0,0.6-0.1,0.9-0.1
	c0-0.4,0-1,0-1.2c0-0.9-0.1-1.8,0-2.8c0-0.8,0.2-1.6,0.5-1.5c0.2,0,0.4,0.6,0.4,1.1c0,0.6,0,1.3,0,1.9c0,0.6,0,1.6,0,2.4
	c0.4,0,0.6-0.1,0.6-0.1l-0.5-23.3c-8-9.1-33.3-8.4-41.3-7.9c0,0,0.7,5.4,1.2,7.1c0.3,1.2,1.7,4.8,1.7,4.8l4.2,0.3
	c1.2,0.1,2.1,1,2.2,2.2l0.9,7.9L60,59c0.2,0.3,0.3,0.7,0.3,1.1c0.4,0,0.8,0,1.2,0C61.1,59.6,61.1,58.2,61.1,57.8z M84.9,42.6
	c0.2,0,0.4,0.5,0.4,1c0,0.6,0,1.1,0,1.7c0,0.6,0,2,0,2.6c0,0.1-0.8-0.1-0.8-0.1c-0.1,0-0.1-1.2-0.1-1.5c0-0.8-0.1-1.6,0-2.4
	C84.4,43.2,84.6,42.5,84.9,42.6z M83.1,41.9c0.2,0,0.4,0.6,0.5,1.2c0.1,0.7,0.1,1.3,0,2c0,0.7,0,2.3,0,3L82.7,48
	c-0.1,0-0.1-1.4-0.1-1.7c0-0.9-0.1-1.9,0-2.8C82.5,42.6,82.7,41.8,83.1,41.9z M80.9,41.3c0.3,0,0.6,0.6,0.6,1.2
	c0.1,0.7,0.1,1.4,0.1,2.1c0,0.8,0,2.4,0,3.1c0,0.1-1.2,0-1.2,0c-0.2,0-0.2-1.5-0.2-1.8c0-1-0.1-2-0.1-2.9
	C80.1,42,80.4,41.2,80.9,41.3z M76.9,42.4c0-1,0.4-1.9,1.2-1.8c0.4,0,0.9,0.7,1,1.3c0.1,0.8,0.1,1.5,0.1,2.3s0.1,2.4-0.1,3.3
	c-0.1,0.4-1.8,0.1-1.8,0.1c-0.2,0-0.3-1.6-0.3-2C77.1,44.5,76.9,43.5,76.9,42.4z M72.7,41.8c0.1-1,0.5-2,1.5-1.9
	c0.5,0,1.1,0.7,1.2,1.4c0.1,0.8,0.1,1.6,0.1,2.4c0,0.9,0,2.8-0.1,3.6h-2.3c-0.3,0-0.3-1.7-0.3-2.1C72.9,44.1,72.7,43,72.7,41.8z
	 M67.8,41.5c0.1-1,0.5-2,1.5-1.9c0.5,0,1.1,0.7,1.2,1.4c0.1,0.8,0.1,1.6,0.1,2.4c0,0.9,0,2.8-0.1,3.6h-2.3c-0.3,0-0.3-1.7-0.3-2.1
	C68,43.7,67.8,42.6,67.8,41.5z M63,40.8c0.1-1.2,0.5-2.2,1.5-2.2c0.5,0,1.1,0.9,1.2,1.6c0.1,0.9,0.1,1.8,0.1,2.8
	c-0.1,1,0.1,2.7-0.1,3.8h-2.5c-0.3,0-0.2-1.6-0.2-2.1C63.2,43.4,63,42.1,63,40.8z M60.8,42.8c-0.1,1,0.1,2.8-0.1,3.9
	c0,0.2-3.3,0.1-3.3,0.1C57,46.7,57,45,57,44.5c0.1-1.3-0.3-2.7-0.2-4c0.1-1.2,0.7-2.3,2.1-2.2c0.7,0.1,1.5,0.9,1.7,1.6
	C60.9,40.9,60.9,41.8,60.8,42.8z"/>
<path class="st0" d="M1,54.1c0.1-1,0.9-1.8,1.4-1.3c0.4,0.5,0.6,1.5,0.5,2.4c-0.1,0.8,0,3.5-0.1,4.3c0.4,0,0.9,0,1.3,0
	C3.9,58.1,3.9,55.4,4,54c0.1-1.1,1.2-2,1.7-1.4c0.5,0.5,0.7,1.6,0.6,2.6c-0.1,0.9,0,3.6-0.1,4.5c0.4,0,0.9,0,1.3,0
	c-0.2-1.6-0.2-4.6-0.1-6.1c0.1-1.2,1.5-2.1,2.2-1.5c0.6,0.5,0.9,1.7,0.8,2.8c-0.1,1,0,4.2-0.2,4.9c0.7,0,1.5,0,2.2,0.1
	c-0.2-1-0.1-4.2-0.2-5.2c-0.1-1.1,0.3-2.4,1-3c0.9-0.7,2.6,0.3,2.7,1.6c0.2,1.7,0.1,5-0.1,6.8c1.1,0,2.1,0.1,3.1,0.1
	c-0.2-1.1-0.1-4.6-0.3-5.8c-0.1-1.2,0.3-2.7,1.1-3.3c0.9-0.7,2.8,0.4,3,1.8c0.2,1.9,0.1,5.4-0.1,7.4c1.2,0,2.3,0,3.5,0.1
	c-0.3-1-0.2-5-0.4-6.2c-0.2-1.3,0.3-2.8,1.3-3.5c1.2-0.8,3.5,0.4,3.7,1.9c0.2,2,0.1,5.9-0.2,7.9l0,0c1.5,0,2.9,0,4.2,0.1
	c-0.1-2-0.3-6.8-0.1-8.7c0.1-0.8,0.7-1.5,1.8-1.6c1.4-0.2,3.4,0.9,3.2,2.7c0,0.6,0,1.2,0,1.8s0,1.2,0,1.9c0,1-0.1,3.1-0.2,3.9
	c1.6,0,3,0,4.4,0c-0.4-0.8-0.3-5.3-0.5-6.7s0.4-3,1.5-3.7c1.3-0.8,4,0.4,4.2,2c0.2,2.1,0.2,6.2-0.2,8.3l0,0c5.8,0,9.1-0.1,9.1-0.1
	l-5.1-9.9L52,43c0,0-0.1-0.4-0.2-0.7c-0.1-0.2-0.6-0.2-0.6-0.2l-5-0.4c0,0-1.9-4.8-2.3-6.4c-0.5-2-1.3-8-1.3-8s-0.1-0.6-0.3-0.7
	c-0.1-0.1-0.7-0.1-0.7-0.1L38,26.6h-0.8L37,26.1c0,0-2-4.7-2.4-6.4c-0.4-1.7-0.5-6.9-0.5-6.9s0-0.4-0.1-0.5C33.7,12,33.4,12,33.4,12
	l-1.2-0.1l-0.3-0.1c-0.1-0.1-0.3-0.3-0.3-0.3L26,0.4c0,0-0.2-0.3-0.4-0.3C25.4,0,25.2,0,25,0C2.9,6.8,1.6,18.1,1.6,18.1L0,59.4
	c0.7,0,0.4,0.1,1,0.1C0.9,58.1,0.9,55.5,1,54.1z M34.4,35.8c0.2-0.8,1.3-1.6,2.2-1.7c1.9-0.1,2.8,0.9,2.9,2.1c0.2,1.3-0.3,2.6-0.1,4
	c0,0.5,0,2.4-0.5,2.4c-0.6,0.1-4.4-0.1-4.4-0.1c-0.3-1-0.1-3-0.2-4C34.2,37.7,34.2,36.8,34.4,35.8z M26.6,22.1
	c0.1-1.1,0.8-2.1,2.4-2c0.8,0,1.7,0.8,1.9,1.5c0.2,0.8,0.2,1.7,0.2,2.6c-0.1,0.9,0.1,2.7-0.1,3.7c0,0-3.5,0.6-4,0.3
	S26.4,23.3,26.6,22.1z M26.9,35.1c1.2-0.6,3.5,0.3,3.7,1.5c0.2,1.6,0.1,4.7-0.2,6.3c0,0.2-3.9,0.7-4.4,0.3c-0.4-0.4-0.3-4.2-0.4-5.3
	C25.4,36.9,25.9,35.7,26.9,35.1z M22.5,43.7c0,0.2-3.2,0.7-3.6,0.3s-0.2-4.1-0.4-5.1c-0.1-1,0.3-2.2,1.1-2.7c1-0.6,2.9,0.3,3,1.4
	C22.8,39.2,22.7,42.1,22.5,43.7z M23.2,2.6c0.7-0.2,1.4,0.2,1.4,0.6c-0.1,1-1,1.1-2.1,1.2C22.2,4.2,21.2,5,21.3,4
	C21.3,3.2,22.4,2.8,23.2,2.6z M21.7,21.9c0.7,0,1.4,0.8,1.6,1.4c0.2,0.8,0.2,1.7,0.1,2.5c-0.1,0.9,0.1,2.4-0.1,3.4
	c0,0-2.9,0.8-3.2,0.5c-0.3-0.3-0.4-4.7-0.3-5.9C19.8,22.8,20.4,21.8,21.7,21.9z M18.8,4.4c0.4,0,1.2-0.1,1.1,0.6
	c0,0.7-0.8,0.7-1.4,0.8c-0.3,0-0.8,0.3-0.8-0.4C17.7,4.6,18.3,4.4,18.8,4.4z M15.2,6.1c0.5-0.1,1.2-0.2,1.2,0.4
	c0.1,0.8-0.7,1.1-1.3,1.2c-0.4,0.1-1.2,0.1-1.1-0.5C14,6.6,14.5,6.1,15.2,6.1z M14,25.6c0.1-1,0.5-1.9,1.6-1.8
	c0.5,0,1.2,0.7,1.3,1.3c0.1,0.8,0.1,1.5,0.1,2.3c0,0.9,0.1,2.3-0.1,3.1c0,0-2.4,0.8-2.7,0.5C14,30.8,13.9,26.6,14,25.6z M14.3,37.3
	c0.9,0,1.6,0.4,1.7,1.5c0.1,1.4,0.1,4.1-0.1,5.6c0,0.2-2.7,0.6-3,0.3S12.7,41,12.6,40C12.5,39,13.1,37.3,14.3,37.3z M11.6,8.2
	c0.5,0,1.2-0.1,1.2,0.5c0,0.7-0.5,1.2-1.3,1.2c-0.6,0.1-1.2,0.1-1.2-0.6C10.4,8.7,10.9,8.2,11.6,8.2z M10.4,25.9
	c0.4,0,0.9,0.6,1,1.2c0.1,0.7,0.1,1.4,0.1,2c0,0.8,0,2-0.1,2.7c0,0-1.9,0.9-2.1,0.6c-0.2-0.2-0.3-4.1-0.2-5
	C9.2,26.6,9.6,25.8,10.4,25.9z M8.4,10.6c0.4,0,1,0,1.2,0.7c-0.1,0.6-0.5,0.7-1,0.8s-0.8,0.1-0.9-0.5C7.5,10.9,7.9,10.6,8.4,10.6z
	 M8.4,38.5c0.7-0.5,2.1,0.3,2.2,1.3c0.1,1.4,0.1,4.1-0.1,5.5c0,0.2-2.4,0.4-2.6,0.1c-0.3-0.3-0.2-3.5-0.3-4.4
	C7.5,40,7.8,39,8.4,38.5z M7.3,28.7c0.1,0.7,0.1,1.3,0.1,2s0,2.1-0.1,2.8c0,0-1.7,0.9-1.9,0.6C5.2,33.9,5.2,30,5.2,29
	c0-0.8,0.4-1.6,1.1-1.5C6.7,27.6,7.2,28.2,7.3,28.7z M5.5,13.2c0.5-0.1,1.1,0.1,1.1,0.5c0.1,0.4-0.4,0.8-0.9,0.8
	c-0.5,0.1-1,0.2-1.1-0.3S4.9,13.3,5.5,13.2z M5,39.5c0.5-0.5,1.5,0.2,1.6,1.2c0.1,1.3,0.1,3.8-0.1,5.1c0,0.2-1.7,0.4-1.9,0.1
	c-0.2-0.3-0.1-3.2-0.2-4.1S4.5,40,5,39.5z M4.3,32.5c0,0.6,0,1.8,0,2.4c0,0-1.3,1-1.4,0.8c-0.1-0.2-0.2-3.7-0.1-4.5
	c0-0.7,0.3-1.4,0.9-1.3c0.3,0,0.6,0.5,0.7,1C4.3,31.3,4.3,31.9,4.3,32.5z M2.8,16.2c0.5-0.1,1.1-0.1,1.2,0.5
	c0.1,0.5-0.3,0.7-0.8,0.8c-0.6,0.1-1-0.1-1.1-0.7C2,16.3,2.5,16.3,2.8,16.2z M2.3,40.5c0.3-0.5,0.9,0.2,1,1.1c0.1,1.2,0,3.6,0,4.8
	c0,0.2-1,0.4-1.1,0.1C2,46.2,2,43.4,2,42.6C1.9,41.8,2.1,40.9,2.3,40.5z"/>
</svg>
