<?xml version="1.0" encoding="utf-8"?>
<!-- Generator: Adobe Illustrator 24.1.0, SVG Export Plug-In . SVG Version: 6.00 Build 0)  -->
<svg version="1.1" id="Laag_1" xmlns="http://www.w3.org/2000/svg" xmlns:xlink="http://www.w3.org/1999/xlink" x="0px" y="0px"
	 viewBox="0 0 58.2 35.4" style="enable-background:new 0 0 58.2 35.4;" xml:space="preserve">
<style type="text/css">
	.st0{fill:#FFFFFF;}
</style>
<g>
	<g>
		<path class="st0" d="M1,17.4c1.2,0,1.8,0.6,2.7,1.7c0.9,1,2,2.3,4.3,2.3s3.3-1.3,4.3-2.3c0.9-1.1,1.5-1.7,2.7-1.7s1.8,0.6,2.7,1.7
			c0.9,1,2,2.3,4.3,2.3s3.3-1.3,4.3-2.3c0.9-1.1,1.5-1.7,2.7-1.7s1.8,0.6,2.7,1.7c0.9,1,2,2.3,4.3,2.3c2.2,0,3.3-1.3,4.3-2.3
			c0.9-1.1,1.5-1.7,2.7-1.7s1.8,0.6,2.8,1.7c0.9,1,2.1,2.3,4.3,2.3s3.3-1.3,4.3-2.3c0.9-1.1,1.5-1.7,2.8-1.7c0.6,0,1-0.4,1-1
			c0-0.6-0.4-1-1-1c-2.2,0-3.3,1.3-4.3,2.3c-0.9,1.1-1.5,1.7-2.8,1.7c-0.7,0-1.2-0.2-1.7-0.6C48,8.4,39.5,0,29,0S10,8.4,9.7,18.8
			c-0.5,0.4-1,0.6-1.7,0.6c-1.2,0-1.8-0.6-2.7-1.7c-0.9-1-2-2.3-4.3-2.3c-0.6,0-1,0.4-1,1C0,17,0.4,17.4,1,17.4z M29,2
			c8.6,0,15.7,6.3,17.1,14.5c-0.8-0.6-1.7-1.1-3.1-1.1c-2.2,0-3.3,1.3-4.3,2.3c-0.9,1.1-1.5,1.7-2.7,1.7s-1.8-0.6-2.7-1.7
			c-0.9-1-2-2.3-4.3-2.3c-2.2,0-3.3,1.3-4.3,2.3c-0.9,1.1-1.5,1.7-2.7,1.7s-1.8-0.6-2.7-1.7c-0.9-1-2-2.3-4.3-2.3
			c-1.4,0-2.3,0.5-3.1,1.1C13.3,8.3,20.4,2,29,2z"/>
	</g>
	<g>
		<path class="st0" d="M57,22.4c-2.2,0-3.3,1.3-4.3,2.3c-0.9,1.1-1.5,1.7-2.8,1.7c-1.2,0-1.8-0.6-2.8-1.7c-0.9-1-2-2.3-4.3-2.3
			c-2.2,0-3.3,1.3-4.3,2.3c-0.9,1.1-1.5,1.7-2.7,1.7s-1.8-0.6-2.7-1.7c-0.9-1-2-2.3-4.3-2.3c-2.2,0-3.3,1.3-4.3,2.3
			c-0.9,1.1-1.5,1.7-2.7,1.7s-1.8-0.6-2.7-1.7c-0.9-1-2-2.3-4.3-2.3s-3.1,1.3-4.1,2.3c-0.9,1.1-1.5,1.7-2.7,1.7s-1.8-0.6-2.7-1.7
			c-0.9-1-2-2.3-4.3-2.3c-0.6,0-1,0.4-1,1s0.4,1,1,1c1.2,0,1.8,0.6,2.7,1.7c0.9,1,2,2.3,4.3,2.3s3.3-1.3,4.3-2.3
			c0.9-1.1,1.5-1.7,2.7-1.7s1.8,0.6,2.7,1.7c0.9,1,2,2.3,4.3,2.3s3.3-1.3,4.3-2.3c0.9-1.1,1.5-1.7,2.7-1.7s1.8,0.6,2.7,1.7
			c0.9,1,2,2.3,4.3,2.3c2.2,0,3.3-1.3,4.3-2.3c0.9-1.1,1.5-1.7,2.7-1.7s1.8,0.6,2.8,1.7c0.9,1,2.1,2.3,4.3,2.3s3.3-1.3,4.3-2.3
			c0.9-1.1,1.5-1.7,2.8-1.7c0.6,0,1-0.4,1-1S57.6,22.4,57,22.4z"/>
	</g>
	<g>
		<path class="st0" d="M57,29.4c-2.2,0-3.3,1.3-4.3,2.3c-0.9,1.1-1.5,1.7-2.8,1.7c-1.2,0-1.8-0.6-2.8-1.7c-0.9-1-2-2.3-4.3-2.3
			c-2.2,0-3.3,1.3-4.3,2.3c-0.9,1.1-1.5,1.7-2.7,1.7s-1.8-0.6-2.7-1.7c-0.9-1-2-2.3-4.3-2.3c-2.2,0-3.3,1.3-4.3,2.3
			c-0.9,1.1-1.5,1.7-2.7,1.7s-1.8-0.6-2.7-1.7c-0.9-1-2-2.3-4.3-2.3s-3.1,1.3-4.1,2.3c-0.9,1.1-1.5,1.7-2.7,1.7s-1.8-0.6-2.7-1.7
			c-0.9-1-2-2.3-4.3-2.3c-0.6,0-1,0.4-1,1s0.4,1,1,1c1.2,0,1.8,0.6,2.7,1.7c0.9,1,2,2.3,4.3,2.3s3.3-1.3,4.3-2.3
			c0.9-1.1,1.5-1.7,2.7-1.7s1.8,0.6,2.7,1.7c0.9,1,2,2.3,4.3,2.3s3.3-1.3,4.3-2.3c0.9-1.1,1.5-1.7,2.7-1.7s1.8,0.6,2.7,1.7
			c0.9,1,2,2.3,4.3,2.3c2.2,0,3.3-1.3,4.3-2.3c0.9-1.1,1.5-1.7,2.7-1.7s1.8,0.6,2.8,1.7c0.9,1,2.1,2.3,4.3,2.3s3.3-1.3,4.3-2.3
			c0.9-1.1,1.5-1.7,2.8-1.7c0.6,0,1-0.4,1-1S57.6,29.4,57,29.4z"/>
	</g>
</g>
</svg>
