<?xml version="1.0" encoding="utf-8"?>
<!-- Generator: Adobe Illustrator 24.1.0, SVG Export Plug-In . SVG Version: 6.00 Build 0)  -->
<svg version="1.1" id="Laag_1" xmlns="http://www.w3.org/2000/svg" xmlns:xlink="http://www.w3.org/1999/xlink" x="0px" y="0px"
	 viewBox="0 0 95.6 33.3" style="enable-background:new 0 0 95.6 33.3;" xml:space="preserve">
<path d="M95.3,30.2L95.3,30.2c-0.1-0.1-0.2-0.1-0.3-0.1h-0.2C94.7,30,94.7,30,94.6,30h-0.2c-0.1-0.1-0.1-0.1-0.2-0.1h-0.2
	c-0.1-0.1-0.1-0.1-0.2-0.1v-0.4c0.1-0.1,0.1-0.2,0.1-0.3c0-0.3-0.2-0.5-0.5-0.5s-0.5,0.2-0.5,0.5c0,0.1,0.1,0.2,0.1,0.3v0.1
	c0,0,0,0-0.1,0h-0.1c-0.1-0.1-0.1-0.2-0.3-0.2h-0.2c-0.1-0.1-0.1-0.2-0.3-0.2h-0.7c-0.1-0.1-0.1-0.1-0.3-0.1H91
	c-0.1-0.1-0.1-0.1-0.2-0.1h-0.2c-0.1-0.1-0.1-0.1-0.2-0.1h-0.1c-0.1-0.1-0.1-0.2-0.3-0.2h-0.2c-0.1-0.1-0.1-0.1-0.2-0.1h-0.1
	c-0.1-0.1-0.1-0.1-0.2-0.1h-0.2c-0.1-0.1-0.1-0.1-0.3-0.1h-0.2c-0.1-0.1-0.1-0.1-0.2-0.1h-2.1c-0.1-0.1-0.1-0.1-0.2-0.1h-0.1
	c0,0-0.1-0.1-0.2-0.1c-0.1-0.1-0.1-0.1-0.2-0.1h-0.1c-0.1-0.1-0.1-0.1-0.2-0.1h-0.1c-0.1-0.1-0.1-0.1-0.2-0.1
	c-0.1-0.1-0.1-0.1-0.2-0.1h-1.7l0.4-0.6c0,0,0-0.1,0-0.1c0,0,0-0.1,0-0.1v-0.1c0,0,0,0,0,0c0,0,0-0.1,0-0.1c0,0,0-0.1-0.1-0.1
	c0,0,0,0,0,0l-3.4-2v-0.8l0.3-0.4c0,0,0,0,0,0l0.4-0.5l0,0l0.4-0.5l0,0l0.4-0.5l0,0l0.4-0.5l0,0l0.4-0.5l0,0l0.4-0.5l0,0l0.4-0.5
	c0,0,0-0.1,0-0.1c0,0,0-0.1,0-0.1c0,0,0,0,0,0c0,0,0,0,0,0c0,0,0-0.1,0-0.1c0,0,0-0.1,0-0.1c0,0,0,0,0,0c0,0,0,0,0,0c0,0,0,0,0,0
	c0,0-0.1,0-0.1,0c0,0-0.1,0-0.1,0c0,0,0,0,0,0l-1.3-0.1c0,0,0,0,0,0l-0.2,0c0,0,0,0,0,0c0,0,0,0,0,0l-0.8,0c0,0,0,0,0,0l-0.8,0
	c0,0,0,0,0,0c0,0,0,0,0,0l-0.4,0c0,0,0,0,0,0l-1,0.1c0,0,0,0,0,0l-0.1,0c0,0,0,0,0,0c0,0,0,0,0,0l-0.7,0.1c0,0,0,0,0,0l-0.8,0.1
	c0,0,0,0,0,0c0,0,0,0,0,0l-1,0.2c0,0,0,0,0,0l-0.6,0.1c0,0,0,0,0,0c0,0,0,0,0,0L73.8,20c0,0-0.1,0-0.1,0l-0.5,0.1c0,0,0,0,0,0
	c0,0,0,0,0,0l-0.1,0c0,0,0,0,0,0l-1.5,0.4c0,0,0,0,0,0c0,0,0,0,0,0l-0.4,0.2c0,0,0,0,0,0c0,0,0,0,0,0l-0.5,0.2c0,0,0,0,0,0
	c0,0,0,0,0,0l-0.4,0.1l-0.8-0.3c0,0,0,0,0,0c0,0,0,0,0,0l-0.6-0.2l0,0c0,0,0,0,0,0l-0.4-0.1c0,0,0,0,0,0c0,0,0,0,0,0l-1-0.3
	c0,0,0,0,0,0c0,0,0,0,0,0l-0.9-0.2c0,0,0,0,0,0l-0.1,0c0,0,0,0,0,0c0,0,0,0,0,0l-1-0.2c0,0,0,0,0,0c0,0,0,0,0,0l-0.2,0c0,0,0,0,0,0
	l-0.8-0.2c0,0,0,0,0,0s0,0,0,0L64,19.3l0.9-1.6c0,0,0,0,0,0l0.9-1.6l0,0l0.9-1.6c0,0,0,0,0,0l0.9-1.6c0,0,0,0,0,0c0,0,0,0,0-0.1
	c0,0,0,0,0-0.1c0,0,0-0.1,0-0.1s0-0.1-0.1-0.1c0,0,0,0,0-0.1c0,0,0,0-0.1,0s0,0,0,0c-0.3-0.1-0.6-0.1-1-0.2c0,0,0,0,0,0
	c0,0-0.1,0-0.1,0c-0.3,0-0.6-0.1-0.8-0.1c0,0,0,0,0,0c0,0,0,0,0,0c-0.3,0-0.7-0.1-1-0.1c0,0,0,0,0,0c-0.1,0-0.1,0-0.2,0
	c-0.3,0-0.5,0-0.8-0.1c0,0,0,0,0,0c0,0,0,0-0.1,0c-0.3,0-0.6,0-1,0c0,0,0,0,0,0c-0.1,0-0.1,0-0.2,0c-0.6,0-1.3,0-1.9,0.1
	c0,0,0,0,0,0c0,0-0.1,0-0.1,0c-0.3,0-0.5,0.1-0.8,0.1c0,0,0,0,0,0c0,0,0,0-0.1,0c-0.9,0.1-1.9,0.3-2.8,0.5c0,0,0,0,0,0c0,0,0,0,0,0
	c-0.3,0.1-0.6,0.2-0.9,0.3c0,0,0,0-0.1,0c0,0,0,0,0,0c-0.3,0.1-0.5,0.2-0.8,0.3c0,0-0.1,0-0.1,0c0,0,0,0,0,0
	c-0.3,0.1-0.6,0.2-0.9,0.3c0,0,0,0,0,0c0,0,0,0,0,0c-0.3,0.1-0.5,0.2-0.8,0.3c0,0-0.1,0-0.1,0c0,0,0,0,0,0c-0.3,0.1-0.6,0.3-0.9,0.4
	c0,0,0,0,0,0c0,0,0,0,0,0c-0.3,0.1-0.5,0.3-0.8,0.4c0,0-0.1,0-0.1,0.1c0,0,0,0,0,0c-0.2,0.1-0.4,0.2-0.6,0.3c-0.9-1.8-2-3.4-3.2-4.9
	c0-0.1-0.1-0.1-0.1-0.1c-0.3-0.4-0.6-0.7-0.9-1.1c0,0,0,0,0,0c-0.3-0.3-0.6-0.6-0.9-0.9c0,0-0.1-0.1-0.1-0.1c-0.3-0.3-0.6-0.6-1-0.9
	c0-0.1-0.1-0.1-0.1-0.1c-0.4-0.3-0.7-0.7-1.1-1c0,0-0.1-0.1-0.1-0.1c-0.4-0.3-0.8-0.6-1.2-0.9c0-0.1-0.1-0.1-0.2-0.1
	c-0.4-0.3-0.8-0.5-1.2-0.8c0-0.1-0.1-0.1-0.2-0.1c-0.5-0.3-0.9-0.5-1.4-0.8c0,0-0.1,0-0.1-0.1c-0.4-0.2-0.9-0.4-1.3-0.7
	c0,0-0.1-0.1-0.2-0.1c-0.5-0.2-1.1-0.5-1.6-0.7c0,0,0,0,0,0C34.5,1.3,34,1.1,33.4,1c0,0,0,0,0,0c-1.2-0.4-2.5-0.7-3.8-1
	c0,0-0.1,0-0.1,0c0,0-0.1,0-0.1,0c0,0,0,0,0,0c0,0,0,0.1-0.1,0.1c0,0-0.1,0.1-0.1,0.1c0,0,0,0,0,0c0,0,0,0.1,0,0.1c0,0,0,0.1,0,0.1
	l1.6,3l1.4,3l1.3,3.1l0.1,0.2l0.1,1.1l-0.4,0.1l-0.1-0.8c0,0,0,0,0-0.1c0,0,0,0,0,0s0,0,0,0c0,0,0,0,0,0c0,0-0.1-0.1-0.1-0.1
	c0,0,0,0,0,0l-1.4-0.7c0,0,0,0,0,0c0,0,0,0,0,0l-1.4-0.6c0,0,0,0,0,0s0,0,0,0l-0.6-0.2c0,0-0.1,0-0.1-0.1l-0.7-0.3c0,0,0,0,0,0
	s0,0,0,0l-1.5-0.5c0,0,0,0,0,0s0,0,0,0L25.8,7c0,0,0,0,0,0s0,0,0,0l-1.5-0.3c0,0,0,0,0,0c0,0,0,0,0,0l-1.5-0.2c0,0,0,0,0,0
	c0,0,0,0,0,0l-1.6-0.2c0,0-0.1,0-0.1,0c0,0-0.1,0-0.1,0c0,0,0,0,0,0c0,0,0,0.1-0.1,0.1c0,0-0.1,0.1-0.1,0.1c0,0,0,0,0,0
	c0,0,0,0.1,0,0.1c0,0,0,0.1,0,0.1L22,8.8l1.1,2.1l0,0l0.6,1.2l-0.1,0.1l-0.7-0.2c0,0,0,0,0,0c0,0,0,0,0,0L22,11.7c0,0,0,0,0,0
	s0,0,0,0l-1.7-0.5c0,0,0,0,0,0c0,0,0,0,0,0l-1.7-0.4c0,0,0,0,0,0c0,0,0,0,0,0L18,10.8c0,0-0.1,0-0.1,0l-1.1-0.2c0,0,0,0,0,0
	c0,0,0,0,0,0l-1.7-0.2c0,0,0,0,0,0c0,0,0,0,0,0l-1.8-0.1c0,0,0,0,0,0c0,0,0,0,0,0c0,0,0,0,0,0l-1.8,0c0,0,0,0,0,0s0,0,0,0l-0.3,0
	c0,0,0,0,0,0l-1.4,0.1c0,0-0.1,0-0.1,0.1c0,0-0.1,0-0.1,0c0,0,0,0,0,0c0,0,0,0.1,0,0.1c0,0,0,0.1,0,0.1c0,0,0,0,0,0
	c0,0.1,0,0.1,0.1,0.2c0,0,0,0,0,0l0,0c0,0,0,0,0,0l1.3,1.2c0,0,0,0,0,0l1.3,1.3l1.2,1.3l0.5,0.6v3l-2.5,3.3c0,0,0,0,0,0c0,0,0,0,0,0
	l-1.6,0.5c0,0,0,0-0.1,0c0,0-0.1,0-0.1,0.1s0,0.1,0,0.1c0,0,0,0,0,0.1v0.1c0,0,0,0.1,0,0.1c0,0,0,0.1,0,0.1l0.7,0.8v1
	c0,0.1,0,0.2,0.1,0.2v0.1l-0.6,0c0,0,0,0,0,0s0,0,0,0H9.6c0,0,0,0,0,0s0,0,0,0H9.5c-0.2,0-0.3,0.1-0.3,0.3l0,0.6l-0.4,0.5
	c-0.1,0.1-0.1,0.2-0.1,0.3S8.8,27,9,27c0,0,0,0,0,0h0.1h0c0,0,0,0,0,0h0v0.2H8.1c-0.2,0-0.3,0.1-0.3,0.3v1.2l-0.4,0.5
	c-0.1,0.1-0.1,0.2-0.1,0.4c0.1,0.1,0.2,0.2,0.3,0.2h0l0.2,0v0.4H7.2v-0.8c0.1-0.1,0.1-0.2,0.1-0.3c0-0.3-0.2-0.5-0.5-0.5
	c-0.3,0-0.5,0.2-0.5,0.5c0,0.1,0.1,0.2,0.1,0.3v0.8H5.3v-2.5c0-0.2-0.1-0.3-0.3-0.3H4c-0.2,0-0.3,0.1-0.3,0.3v0.9c0,0,0,0,0,0v-0.9
	c0-0.2-0.1-0.3-0.3-0.3H2.5c-0.2,0-0.3,0.1-0.3,0.3v0.8c0,0,0,0,0,0c-0.1,0-0.2,0-0.3,0.1c-0.1,0-0.2-0.1-0.3-0.1
	c-0.3,0-0.5,0.2-0.5,0.5c0,0.1,0.1,0.3,0.1,0.3v0.8H0.3c-0.2,0-0.3,0.1-0.3,0.3v2.9c0,0.2,0.1,0.3,0.3,0.3h95c0.2,0,0.3-0.1,0.3-0.3
	v-2.9C95.6,30.3,95.5,30.2,95.3,30.2z M80.9,20.4C80.9,20.4,80.9,20.4,80.9,20.4L80.9,20.4L80.9,20.4z M80.4,19.9L80.4,19.9
	L80.4,19.9L80.4,19.9L80.4,19.9z M22.3,7.3l-0.5-0.2L21.7,7l0.8,0.1l0,0.1L22.3,7.3z M22.7,8l-0.1,0c0,0,0,0,0,0l0.2-0.2l0,0.1
	L22.7,8z M22.9,8.7L22.9,8.7C22.9,8.6,22.9,8.6,22.9,8.7L22.9,8.7z M23,8.6C23,8.6,23,8.6,23,8.6C23,8.6,23,8.6,23,8.6L23,8.6z
	 M11.1,11.3h-0.4l-0.1-0.1l0.5,0L11.1,11.3L11.1,11.3z M12,12.3h-0.1c0,0,0,0,0,0C11.9,12.2,11.9,12.2,12,12.3l0-0.1L12,12.3
	L12,12.3L12,12.3z M12.4,12.8C12.4,12.8,12.4,12.8,12.4,12.8C12.4,12.8,12.5,12.8,12.4,12.8L12.4,12.8L12.4,12.8z M12.9,12L12.9,12
	L12.9,12L12.9,12z M13,13.4C13,13.4,13,13.4,13,13.4C13,13.4,13,13.4,13,13.4L13,13.4L13,13.4L13,13.4L13,13.4z M13.3,12.6
	C13.3,12.5,13.3,12.5,13.3,12.6L13.3,12.6l0.1,0L13.3,12.6z M13.5,11.2l-0.4-0.1L13.1,11l0.2,0l0.2,0L13.5,11.2L13.5,11.2z
	 M13.8,13.2C13.8,13.2,13.8,13.2,13.8,13.2L13.8,13.2L13.8,13.2L13.8,13.2z M2.8,28.6C2.8,28.6,2.8,28.6,2.8,28.6l0-0.5h0V28.6z
	 M5.5,33L5.5,33l0-2.2h0C5.5,30.8,5.5,33,5.5,33z M10.9,30.2L10.9,30.2l0-2.3h0V30.2z M13.9,11.7L13.9,11.7L13.9,11.7L13.9,11.7z
	 M14.1,12.4c0,0,0.1,0,0.1-0.1c0,0,0,0,0,0l0,0l0.1,0.1L14.1,12.4z M14.6,14.4L14.6,14.4C14.6,14.4,14.6,14.4,14.6,14.4L14.6,14.4
	L14.6,14.4z M14.6,11.1l-0.1,0L14.6,11.1L14.6,11.1L14.6,11.1z M15.2,12.4L15,12.3c0,0,0,0,0.1,0l0.1,0L15.2,12.4L15.2,12.4z
	 M16.7,11.7l-0.2-0.1l-0.1-0.3l0.3,0L16.7,11.7L16.7,11.7z M17.3,14.2L17.3,14.2C17.3,14.1,17.3,14.1,17.3,14.2L17.3,14.2L17.3,14.2
	z M17.5,11.7l-0.2-0.1l-0.1-0.3l0.3,0.1l0,0.2L17.5,11.7z M18,14.1C18,14.1,18,14.1,18,14.1L18,14.1L18,14.1z M18.2,22.1L18.2,22.1
	L18.2,22.1L18.2,22.1L18.2,22.1z M18.5,11.7l-0.2-0.1l0-0.1l0.2,0l0.1,0L18.5,11.7L18.5,11.7z M25.5,8.5L25.5,8.5l-0.1,0.2l-0.1-0.1
	c0,0,0,0,0.1,0L25.5,8.5z M25.3,7.6l0.1,0.3L25.2,8l-0.5-0.2l-0.1-0.3L25.3,7.6z M24.1,18.9l0,0.1l-0.9-0.2l-0.1-0.1L24.1,18.9z
	 M24,15.2l0.4,0l0,0L24,15.2L24,15.2z M24.4,19.7l0,0.1l-1.5-0.3l-0.1-0.1L24.4,19.7z M24.3,17.1L24.3,17.1l0.4,0l0,0H24.3z
	 M24.8,9.9l-0.1-0.1l0.1-0.1L24.8,9.9L24.8,9.9z M24.8,12.9L24.8,12.9l-0.2,0l0-0.1c0,0,0.1,0,0.1-0.1c0,0,0,0,0,0L24.8,12.9z
	 M24.8,17.8l0,0.2l-0.4-0.1l0-0.1H24.8z M25,18.7L25,18.7l-0.3,0l0,0L25,18.7z M25,13.7C25,13.7,25,13.6,25,13.7
	C25,13.6,25.1,13.6,25,13.7L25,13.7l0.1,0.1l0,0L25,13.7L25,13.7z M24.9,10.6C24.9,10.6,24.9,10.6,24.9,10.6L24.9,10.6L24.9,10.6
	l0.1,0l0,0.1L24.9,10.6z M24.6,16.5h-0.4l0,0L24.6,16.5L24.6,16.5z M24.5,9.1L24.5,9.1L24.5,9.1l-0.1,0.1L24.5,9.1z M24.4,12
	C24.4,12,24.4,12,24.4,12L24.4,12l0.1,0.1l-0.1,0.1L24.4,12l-0.1,0.1C24.3,12.1,24.4,12.1,24.4,12z M24.2,13.9L24.2,13.9l-0.2,0
	L24.2,13.9z M24.2,11.4C24.2,11.3,24.2,11.3,24.2,11.4L24.2,11.4L24.2,11.4C24.1,11.4,24.1,11.4,24.2,11.4z M23.3,9.3L23.3,9.3
	C23.2,9.3,23.2,9.3,23.3,9.3C23.2,9.3,23.2,9.3,23.3,9.3l0.1-0.2l0,0.1L23.3,9.3z M23.2,7.2l0.7,0.1l0.2,0.6L24,8l-0.5-0.3L23.2,7.2
	z M24,10.6L24,10.6l-0.2,0c0,0,0,0,0.1,0c0,0,0,0,0,0l0.1-0.1L24,10.6z M23.5,10L23.5,10C23.5,10,23.5,9.9,23.5,10
	C23.6,9.9,23.6,9.9,23.5,10l0.1-0.2l0,0L23.5,10z M23.7,17.4L23.7,17.4l-0.3-0.1L23.7,17.4z M22.8,14.7L22.8,14.7L22.8,14.7
	L22.8,14.7z M22,12.4l0.2,0.1l-0.1,0L22,12.4L22,12.4z M22.1,14.6L22.1,14.6L22.1,14.6L22.1,14.6L22.1,14.6z M21.4,17.6l2.5,0.5
	l0,0.1L21.4,17.6L21.4,17.6z M21.1,12.1l0.3,0.1v0l-0.2,0L21.1,12.1L21.1,12.1z M20.9,13.3L20.9,13.3L20.9,13.3
	C20.9,13.3,20.9,13.3,20.9,13.3z M19.5,11.9L19.5,11.9l-0.3-0.1l0-0.1l0.3,0.1L19.5,11.9z M20.2,11.9L20.2,11.9L20.2,11.9l0.3,0
	l0,0.1l-0.1,0L20.2,11.9z M20.3,21.8L20.3,21.8l0-0.5l0,0V21.8z M20.4,19.7l1.2,0.3l0.1,0.1l-1.4-0.3L20.4,19.7z M21,21.9L21,21.9
	l0-0.4l0,0V21.9z M21.1,20.7L21.1,20.7L21,20.6l0.1,0L21.1,20.7z M21.7,22.2L21.7,22.2l-0.1-0.5l0.1,0V22.2z M21.8,20.9l-0.1,0
	l0-0.1l0.1,0L21.8,20.9z M20.7,19.1l0-0.1l1,0.2l0.1,0.1L20.7,19.1z M21,18.4L21,18.4l1,0.1l0.1,0.1L21,18.4z M22.5,22.4l-0.1,0
	v-0.6l0.1,0V22.4z M22.6,21L22.6,21l-0.1-0.1l0.1,0L22.6,21z M23,20.3L23,20.3l-0.3-0.1l-0.1-0.1l2,0.4c0,0,0,0,0,0l0,0.1L23,20.3
	L23,20.3z M23.3,22.7l-0.1,0V22l0.1,0V22.7z M23.3,21.2l-0.2,0l0-0.1l0.2,0L23.3,21.2z M24,22.9L24,22.9l-0.1-0.8l0.1,0V22.9z
	 M24.1,21.4l-0.1,0l0-0.1l0.1,0L24.1,21.4z M24.6,23.1v-0.8l0.2,0v0.8L24.6,23.1z M24.9,19.4l0.3,0.1l0,0.1L24.9,19.4L24.9,19.4z
	 M25.2,20.2L25.2,20.2L25.2,20.2L25.2,20.2z M25.2,11.3C25.2,11.3,25.2,11.3,25.2,11.3L25.2,11.3L25.2,11.3L25.2,11.3z M25.4,14.6
	l-0.1-0.2c0,0,0,0,0,0c0,0,0,0,0,0L25.4,14.6L25.4,14.6z M25.5,12.1l-0.1-0.1c0,0,0,0,0,0C25.4,12.1,25.4,12.1,25.5,12.1L25.5,12.1
	L25.5,12.1z M25.5,21L25.5,21L25.5,21l0.1,0L25.5,21z M25.6,12.9C25.6,12.8,25.7,12.8,25.6,12.9L25.6,12.9L25.6,12.9z M28.2,13.1
	L28.2,13.1L28.2,13.1C28.2,13.1,28.2,13.1,28.2,13.1L28.2,13.1z M28,8.3l0,0.4l-0.2,0l-0.4-0.2l-0.1-0.4L28,8.3z M26.7,9.3L26.7,9.3
	l0.2-0.1l0,0.1L26.7,9.3L26.7,9.3C26.7,9.3,26.7,9.3,26.7,9.3z M26.6,7.9L26.4,8L26,7.8l0,0L26.6,7.9z M25.8,10l0.1-0.1l0,0L25.8,10
	L25.8,10z M25.8,13.6C25.8,13.6,25.9,13.6,25.8,13.6L25.8,13.6L25.8,13.6z M25.9,10.6C25.9,10.6,25.9,10.6,25.9,10.6l0.2-0.1l0,0.1
	l-0.1,0L25.9,10.6z M26,14.5C26,14.5,26,14.5,26,14.5L26,14.5L26,14.5L26,14.5C26.1,14.5,26.1,14.4,26,14.5L26,14.5L26,14.5z
	 M26.1,11.4c0,0,0.1,0,0.1,0l0,0l0,0L26.1,11.4L26.1,11.4z M26.3,12L26.3,12L26.3,12L26.3,12L26.3,12C26.3,12.1,26.3,12.1,26.3,12z
	 M26.3,15.3L26.3,15.3C26.3,15.2,26.3,15.2,26.3,15.3L26.3,15.3L26.3,15.3L26.3,15.3L26.3,15.3z M26.5,13l-0.2-0.1l0,0c0,0,0,0,0,0
	l0,0l0,0c0,0,0,0,0,0c0,0,0.1,0,0.1,0c0,0,0,0,0,0l0,0L26.5,13L26.5,13z M26.7,13.7l-0.1-0.1c0,0,0,0,0,0c0,0,0.1,0,0.1,0
	c0,0,0,0,0,0l0,0L26.7,13.7L26.7,13.7z M26.8,14.4C26.8,14.4,26.8,14.4,26.8,14.4L26.8,14.4L26.8,14.4z M26.9,10
	C26.9,10,26.9,10,26.9,10C26.9,10,26.9,10,26.9,10L27,10l0,0L26.9,10L26.9,10z M27,15.4l0-0.2c0,0,0,0,0,0L27,15.4L27,15.4z
	 M27,10.8L27,10.8C26.9,10.7,26.9,10.7,27,10.8C27,10.7,27,10.7,27,10.8C27.1,10.7,27.1,10.7,27,10.8L27,10.8L27,10.8L27,10.8z
	 M27.2,12.1c0,0,0.1,0,0.1,0h0l0,0l0,0.1l0,0L27.2,12.1C27.1,12.1,27.2,12.1,27.2,12.1z M27.2,12.9L27.2,12.9
	C27.2,12.9,27.2,12.9,27.2,12.9C27.2,12.9,27.3,12.9,27.2,12.9L27.2,12.9L27.2,12.9C27.3,12.9,27.3,12.9,27.2,12.9
	c0.1,0,0.1,0,0.2,0l0,0H27.2L27.2,12.9z M27.4,13.7L27.4,13.7C27.4,13.6,27.4,13.6,27.4,13.7L27.4,13.7l0.1,0.1L27.4,13.7z
	 M27.7,9.4C27.7,9.4,27.7,9.4,27.7,9.4c0.1,0,0.1,0,0.1,0l0.3,0l0,0.1l-0.2,0.1L27.7,9.4z M28,10.8l0.1,0l0,0.1L28,10.8L28,10.8
	C28,10.8,28,10.8,28,10.8z M28,12.1c0,0,0.1,0,0.1,0c0,0,0,0,0,0l0,0l0,0c0,0,0,0,0.1,0c0,0,0,0,0,0l0,0.2l0,0L28,12.1L28,12.1z
	 M28.3,13.9l-0.1-0.1l0-0.1c0,0,0,0,0.1,0l0.1,0L28.3,13.9C28.3,13.9,28.3,13.9,28.3,13.9L28.3,13.9z M28.6,8.5l0.5,0.2l0,0.3
	L29,9.1l-0.3-0.3L28.6,8.5z M28.9,15.6L28.9,15.6L28.9,15.6C28.9,15.5,28.9,15.5,28.9,15.6L28.9,15.6L28.9,15.6L28.9,15.6
	C28.9,15.5,28.9,15.5,28.9,15.6L28.9,15.6z M29,14.1L29,14.1l-0.1,0v-0.1c0,0,0,0,0,0c0,0,0,0,0,0l0-0.1c0,0,0.1,0,0.1,0l0,0l0,0
	c0,0,0,0,0,0L29,14.1z M29.1,12.5L29,12.5l-0.1-0.1c0,0,0.1,0,0.1,0h0l0,0l0,0C29,12.4,29.1,12.4,29.1,12.5L29.1,12.5z M29.1,11
	l-0.1,0l0,0C29,11,29,11,29.1,11L29.1,11L29.1,11z M29.1,9.7l-0.1,0l0,0c0,0,0,0,0,0L29.1,9.7L29.1,9.7z M39.6,10.2l-0.1,0.1
	l-0.1-0.1C39.5,10.2,39.5,10.2,39.6,10.2v-0.1V10.2z M39.4,5.9L39.3,6L39.4,5.9L39.4,5.9z M39.4,5.2l-0.2,0.1l0,0c0,0,0.1,0,0.1,0
	c0,0,0,0,0,0L39.4,5.2L39.4,5.2z M39.3,6L39.3,6L39.3,6C39.2,6,39.2,6,39.3,6z M39.3,4.4L39.3,4.4l-0.2,0.2l-0.6-0.4l0-0.2
	C38.8,4.1,39,4.2,39.3,4.4z M38.5,9.2L38.5,9.2l-0.2-0.1c0,0,0,0,0,0c0,0,0.1,0,0.1,0L38.5,9.2z M38.4,8.2l0,0.1l-0.1,0l-0.1-0.1
	C38.3,8.3,38.3,8.2,38.4,8.2L38.4,8.2z M38.3,7.3l0,0.2l-0.1,0l-0.2-0.2c0,0,0.1,0,0.1,0L38.3,7.3z M38.2,6.4L38.2,6.4l0.1,0.1
	l-0.2,0.1l-0.2-0.2c0,0,0,0,0.1,0h0l0,0l0,0c0,0,0,0,0,0C38,6.5,38.1,6.5,38.2,6.4C38.1,6.4,38.1,6.4,38.2,6.4z M37.9,4.9L37.9,4.9
	L38,5L38,5.1l-0.2-0.2c0,0,0,0,0,0l0,0l0,0c0,0,0,0,0,0C37.8,4.9,37.9,4.9,37.9,4.9C37.9,4.9,37.9,4.9,37.9,4.9z M37.8,3.5l0.1,0.6
	l-0.1,0.1l-0.5-0.3l-0.2-0.7C37.3,3.3,37.6,3.4,37.8,3.5z M37.1,8C37.1,8,37.1,8,37.1,8L37.1,8L37.1,8C37.1,8,37.2,8,37.1,8
	c0.1,0,0.2,0,0.2,0h0l0.1-0.1l0,0.1l0,0.1l-0.1,0.1L36.9,8l0-0.1l0,0h0C37,8,37.1,8,37.1,8z M37,7.2C37,7.2,37,7.2,37,7.2
	C37,7.2,37,7.2,37,7.2L37,7.2L37,7.2C37,7.2,37,7.2,37,7.2c0.1,0,0.1,0,0.2-0.1c0,0,0,0,0,0l0.1-0.1l0,0.1l-0.2,0.1L37,7.2z
	 M37.2,8.9C37.2,8.9,37.2,8.9,37.2,8.9c0,0,0.1,0,0.1,0c0,0,0,0,0.1,0l0,0l0,0c0,0,0,0,0,0c0,0,0.1,0,0.1,0h0l0.1,0l0,0.2l-0.1,0.1
	L37.2,8.9L37.2,8.9z M37,5.5L37,5.5L37,5.5L37,5.5z M36.9,6.3C36.9,6.3,36.9,6.3,36.9,6.3l0.2-0.1l0,0.3L37,6.5l-0.4-0.3l0-0.1
	l0.1,0.1h0c0,0,0.1,0,0.1,0c0,0,0,0,0,0l0,0l0,0c0,0,0,0,0.1,0C36.9,6.3,36.9,6.3,36.9,6.3z M36.8,4.6l0,0.1l-0.2,0.1l-0.3-0.2
	c0,0,0.1,0,0.1,0l0,0l0,0c0.1,0,0.1,0,0.2,0L36.8,4.6z M36.6,4l-0.2,0.1L36.2,4c0,0,0,0,0,0c0,0,0,0,0,0l0,0l0,0c0,0,0,0,0,0
	c0,0,0.1,0,0.1,0h0l0.2-0.1L36.6,4z M35,11.8l0-0.1c0,0,0,0,0.1,0l0,0l0,0h0c0.1,0,0.1,0,0.2-0.1c0,0,0,0,0,0l0,0l0.1,0.3l-0.1,0.1
	L35,11.8z M35.2,16.8L35.2,16.8L35.2,16.8l-0.1-0.2c0,0,0,0,0,0L35.2,16.8z M31,17.9l2.8,0.4l0.1,0.2l-2.9-0.4L31,17.9z M30.9,15.9
	l0-0.2H31L31,15.9H30.9z M31.3,14.9l0,0.1h-0.2l0-0.1H31.3z M31.2,14.3L31.2,14.3l0.3,0l0,0H31.2z M34,13.9l-0.4,0l0-0.2l0.4-0.1
	L34,13.9C34,13.8,34,13.8,34,13.9C34,13.8,34,13.8,34,13.9L34,13.9z M33.5,13.1L33.5,13.1l0.4-0.2l0,0.1L33.5,13.1z M33.4,12.4
	L33.4,12.4l0.4-0.1l0,0.1L33.4,12.4z M33.6,17.4L33.6,17.4L33.6,17.4C33.6,17.4,33.6,17.4,33.6,17.4l0,0.2l-2.4-0.3l0,0c0,0,0,0,0,0
	c0,0,0,0,0,0l0-0.1L33.6,17.4z M33.7,14.7l0-0.1l0.4,0l0,0.2L33.7,14.7z M34.2,15.3l0,0.2l-0.4,0l0-0.1L34.2,15.3z M34.7,18l-0.3,0
	l0-0.2l0.3,0L34.7,18C34.7,17.9,34.7,17.9,34.7,18C34.7,17.9,34.7,17.9,34.7,18L34.7,18z M34.6,13.5L34.6,13.5
	C34.7,13.4,34.7,13.4,34.6,13.5c0.1-0.1,0.1-0.1,0.1-0.1l0,0.1L34.6,13.5L34.6,13.5z M34.6,12.7C34.6,12.7,34.6,12.7,34.6,12.7
	L34.6,12.7L34.6,12.7L34.6,12.7z M34.7,10l-0.4-0.2l0,0c0,0,0.1,0,0.1,0l0,0l0,0h0c0.1,0,0.1,0,0.2-0.1c0,0,0,0,0,0l0.1-0.1l0.1,0.2
	L34.7,10z M34.6,6.5l-0.4-0.2c0,0,0.1,0,0.1,0c0.1,0,0.1,0,0.2-0.1c0,0,0,0,0,0l0.1-0.1l0.1,0.3L34.6,6.5z M34.3,5.6L34.3,5.6
	C34.3,5.5,34.3,5.5,34.3,5.6c0.1-0.1,0.1-0.1,0.1-0.1l0.1-0.1l0,0L34.3,5.6z M34.3,9C34.3,9,34.3,9,34.3,9l0.1-0.1L34.5,9l-0.1,0.1
	L34.2,9C34.2,9,34.3,9,34.3,9z M34.3,16.1l0,0.2l-0.4,0l0-0.1L34.3,16.1z M34.5,16.9l0,0.2l-0.3,0l0-0.2L34.5,16.9z M34.3,20.1
	l0,0.1c0,0,0,0,0,0s0,0,0,0l0.1,0.2l-1.2-0.2l-0.3-0.3L34.3,20.1z M34.6,21l0.1,0.2l-1.5-0.2l-0.3-0.3L34.6,21z M34.6,18.9l-0.1-0.2
	l0.3,0l0,0.2L34.6,18.9z M34.8,14.9C34.8,14.9,34.8,14.9,34.8,14.9C34.9,14.9,34.9,14.9,34.8,14.9l0.1,0.1l0,0l0,0L34.8,14.9z
	 M34.8,10.8c0.1,0,0.1,0,0.1,0c0,0,0,0,0,0c0,0,0,0,0.1,0l0,0l0,0.2L35,10.9L34.8,10.8z M34.8,8c0,0,0.1,0,0.1,0l0,0l0,0h0
	c0.1,0,0.1,0,0.2-0.1c0,0,0,0,0,0l0,0l0.1,0.2l-0.1,0.1L34.8,8L34.8,8z M35.2,8.9C35.2,8.9,35.2,8.9,35.2,8.9L35.2,8.9L35.2,8.9
	L35.2,8.9c0.1,0,0.1,0,0.2-0.1c0,0,0,0,0,0l0,0.1L35.4,9L35.2,8.9z M35.4,9.8c0.1,0,0.1,0,0.2-0.1c0,0,0,0,0,0l0,0l0.1,0.2l0,0l0,0
	L35.4,9.8z M35.6,12.7L35.6,12.7l-0.2-0.1c0,0,0.1,0,0.1-0.1c0,0,0,0,0,0l0,0L35.6,12.7z M35.4,6.2L35.4,6.2L35.4,6.2
	c0.1,0,0.2,0,0.2,0l0,0l0,0h0c0.1,0,0.1,0,0.2-0.1c0,0,0,0,0,0l0,0l0.1,0.2l-0.1,0.1L35.4,6.2z M35.5,5.6
	C35.5,5.6,35.5,5.6,35.5,5.6L35.5,5.6L35.5,5.6z M35.9,3.8L35.9,3.8L35.9,3.8L35.9,3.8z M36.1,7.1C36.1,7.1,36.1,7.1,36.1,7.1
	L36.1,7.1l0,0.1l-0.1-0.1C36,7.2,36,7.2,36.1,7.1z M35.9,10.7l0,0.1L35.9,10.7C35.8,10.7,35.9,10.7,35.9,10.7z M35.9,8L35.9,8
	L35.9,8C36,8,36,8,36.1,8l0,0l0,0h0c0.1,0,0.1,0,0.2-0.1l0,0.2l-0.1,0.1L35.9,8z M36.4,2.8l0.1,0.3l-0.3,0.1l-0.6-0.3l-0.2-0.5
	C35.8,2.5,36.1,2.7,36.4,2.8z M35.3,4.7l0.2-0.1l0,0.1l0,0.1l-0.1,0.1l-0.2-0.1c0,0,0,0,0.1,0C35.2,4.7,35.2,4.7,35.3,4.7
	C35.3,4.7,35.3,4.7,35.3,4.7z M35,3.9C35.1,3.9,35.1,3.9,35,3.9l0.1-0.1l0,0.2L35.1,4L35,3.9C35,3.9,35,3.9,35,3.9z M34.9,7.3
	l-0.1-0.1c0.1,0,0.1,0,0.1-0.1c0,0,0,0,0,0l0,0L34.9,7.3L34.9,7.3z M34.8,3.1L34.9,3l0,0.1l-0.2,0.2l-0.1-0.1
	C34.7,3.2,34.7,3.2,34.8,3.1C34.8,3.1,34.8,3.1,34.8,3.1z M34.7,2.1l0.1,0.2l-0.2,0.2L34,2.1l-0.1-0.4C34.1,1.9,34.4,2,34.7,2.1z
	 M34.2,4.7L34,4.9l-0.3-0.1c0,0,0,0,0,0c0.1,0,0.1,0,0.2-0.1c0,0,0,0,0,0l0.1-0.1L34.2,4.7z M33.4,3.1C33.4,3.1,33.4,3.1,33.4,3.1
	L33.6,3l0.1,0.1l-0.1,0.1L33.4,3.1C33.4,3.2,33.4,3.2,33.4,3.1z M33.5,3.9c0,0,0.1,0,0.1,0c0.1,0,0.1,0,0.2-0.1c0,0,0,0,0,0l0.1-0.1
	l0,0l-0.2,0.2l-0.5-0.2l0,0L33.5,3.9z M31,1.2L30.2,1l-0.1-0.2c0.3,0.1,0.6,0.1,0.9,0.2l0,0L31,1.2z M31.4,2l-0.1-0.1
	C31.3,1.9,31.3,1.9,31.4,2c0-0.1,0-0.1,0-0.1c0,0,0,0,0.1-0.1l0-0.1l0,0.1L31.4,2z M31.7,2.7l-0.1-0.1C31.6,2.6,31.6,2.6,31.7,2.7
	c-0.1-0.1-0.1-0.1-0.1-0.1l0.2-0.2l0,0L31.7,2.7z M33,1.5l0,0.1l-0.3,0.3l-0.7-0.3l-0.2-0.4C32.3,1.3,32.7,1.4,33,1.5z M32.1,3.4
	L32.1,3.4C32,3.4,32,3.4,32.1,3.4C32,3.4,32,3.4,32.1,3.4c0-0.1,0-0.1,0-0.1l0-0.1l0,0L32.1,3.4z M32.2,4.1
	C32.2,4.1,32.2,4.1,32.2,4.1L32.2,4.1L32.2,4.1L32.2,4.1C32.3,4.1,32.3,4.1,32.2,4.1c0.1,0,0.1,0,0.2-0.1c0,0,0,0,0,0
	c0,0,0,0,0.1-0.1l0,0l0,0.1l-0.1,0.1L32.2,4.1z M32.8,5l-0.2-0.1c0.1,0,0.1,0,0.2-0.1c0,0,0,0,0,0l0.1-0.1l0.1,0.2L32.8,5z M33,5.7
	C33,5.7,33.1,5.7,33,5.7c0.1-0.1,0.1-0.1,0.1-0.1l0.1-0.1l0,0.1l-0.1,0.1L33,5.7z M33.4,6.6l-0.3-0.1c0,0,0,0,0.1,0
	c0.1,0,0.1,0,0.2,0c0,0,0,0,0,0c0,0,0,0,0.1,0l0.1-0.1l0.1,0.1L33.4,6.6z M33.7,7.3C33.7,7.3,33.7,7.2,33.7,7.3
	C33.7,7.2,33.8,7.2,33.7,7.3l0.2-0.1l0,0.1l-0.1,0.1L33.7,7.3C33.6,7.3,33.7,7.3,33.7,7.3z M33.6,8.1L33.6,8.1l0.1,0
	c0,0,0.1,0,0.1,0c0.1,0,0.1,0,0.2,0c0,0,0,0,0,0c0,0,0,0,0.1,0l0,0l0.1,0.2l-0.1,0.1L33.6,8.1z M33.8,11.5L33.8,11.5l-0.4,0.2l0-0.1
	L33.8,11.5z M33.4,16.6L33.4,16.6l-1.9-0.1l0-0.1L33.4,16.6z M33.3,15.8C33.3,15.8,33.3,15.8,33.3,15.8l0,0.1l-1.6-0.2l0-0.1
	L33.3,15.8z M33.1,15C33.1,15.1,33.1,15.1,33.1,15C33.1,15.1,33.1,15.1,33.1,15l0,0.1L31.9,15l0,0L33.1,15z M33,14.3
	C33,14.3,33,14.3,33,14.3C33,14.3,33,14.3,33,14.3L33,14.3l-0.9,0l0-0.2L33,14.3L33,14.3z M32.9,13.5L32.9,13.5l-0.5,0l0,0
	L32.9,13.5C32.9,13.5,32.9,13.5,32.9,13.5z M32.8,12.9l-0.3,0l0,0L32.8,12.9L32.8,12.9z M32.1,10l0.5,0.2l0,0.2L32,10.3L32.1,10z
	 M31.8,11.5L31.8,11.5L31.8,11.5L31.8,11.5z M31.7,12.2l0.4,0.1l0,0L31.7,12.2L31.7,12.2z M31.4,13.5h0.3l0,0l0,0l0,0.1L31.4,13.5
	L31.4,13.5z M31.3,9.7l-0.2,0L31,9.5L31.3,9.7z M31,11.6L31,11.6L31,11.6C30.9,11.6,31,11.6,31,11.6z M30.8,12.3L30.8,12.3
	C30.8,12.3,30.8,12.3,30.8,12.3C30.8,12.3,30.8,12.3,30.8,12.3C30.9,12.3,30.9,12.3,30.8,12.3L30.8,12.3L30.8,12.3L30.8,12.3
	C30.8,12.2,30.8,12.3,30.8,12.3z M30.7,13L30.7,13C30.7,13,30.7,13,30.7,13C30.7,13,30.7,13,30.7,13C30.7,13,30.8,13,30.7,13l0.1,0
	L30.7,13L30.7,13C30.7,12.9,30.7,13,30.7,13z M30.8,16.5L30.8,16.5L30.8,16.5L30.8,16.5C30.7,16.5,30.8,16.5,30.8,16.5z M30.7,18.7
	l1.1,0.1l0.2,0.2l-1.4-0.2L30.7,18.7z M30.6,13.7C30.6,13.7,30.6,13.7,30.6,13.7L30.6,13.7L30.6,13.7C30.6,13.7,30.6,13.7,30.6,13.7
	z M30.5,14.4C30.5,14.4,30.5,14.4,30.5,14.4L30.5,14.4L30.5,14.4l-0.1,0C30.4,14.4,30.5,14.4,30.5,14.4z M30.5,17.3L30.5,17.3
	L30.5,17.3L30.5,17.3z M30.4,19.5l1.4,0.2l0.3,0.3l-1.7-0.3L30.4,19.5z M30,9.1l0.3,0.1l0,0.1l-0.2,0L29.8,9V9L30,9.1z M30.2,15.8
	C30.2,15.8,30.2,15.8,30.2,15.8v0.2l0,0L30.2,15.8z M30.1,10L30.1,10L30.1,10L30.1,10z M30,11.9L30,11.9L30,11.9
	C30,11.9,30,11.9,30,11.9z M29.9,12.7L29.9,12.7L29.9,12.7L29.9,12.7C29.9,12.7,29.9,12.7,29.9,12.7z M29.8,13.4L29.8,13.4
	L29.8,13.4C29.8,13.4,29.8,13.4,29.8,13.4z M29.7,14.1C29.7,14.1,29.7,14.1,29.7,14.1l0.1,0.1L29.7,14.1L29.7,14.1z M29.6,24.2
	l0-0.5l0.1,0l0,0.5H29.6z M30.2,22.2l0.1,0l0,0.7l-0.1,0L30.2,22.2z M30.4,24.2l0-0.4l0.1,0L30.4,24.2L30.4,24.2z M31,22.4l0.1,0
	l0,0.7l-0.1,0L31,22.4z M31.2,24.3C31.1,24.3,31.1,24.3,31.2,24.3C31.1,24.3,31.1,24.3,31.2,24.3L31.2,24.3l-0.1-0.4l0.1,0
	L31.2,24.3L31.2,24.3z M31.8,22.5L31.8,22.5l0.1,0.7l0,0L31.8,22.5z M31.9,24.5l0-0.5l0,0L31.9,24.5L31.9,24.5z M31.6,21.8
	C31.6,21.8,31.5,21.8,31.6,21.8l-0.8-0.1c0,0,0,0,0,0l-0.9-0.1l0,0l-0.1,0l0.1-0.2l2,0.3l0.3,0.3L31.6,21.8z M30,20.7l0.1-0.3
	l1.7,0.3l0.3,0.3L30,20.7z M32.5,22.6l0.2,0l0,0.7l-0.1,0L32.5,22.6z M32.6,24.8l0-0.7l0.1,0l0,0.7L32.6,24.8z M34,19.1l0.1,0.2
	L33,19.2L32.8,19L34,19.1z M33.3,22.7L33.3,22.7l0.1,0.7l-0.1,0L33.3,22.7z M33.4,25l0-0.8l0.1,0L33.4,25L33.4,25z M34,22.8l0.1,0
	l0,0.7l-0.1,0L34,22.8z M34.1,25.3l0-1l0.1,0L34.1,25.3L34.1,25.3z M34.8,23.3l0.1,0.3l-0.1,0L34.8,23.3z M34.9,25.4h-0.1l0-1l0.1,0
	V25.4z M34.9,22.2C34.9,22.2,34.9,22.2,34.9,22.2L33.1,22l-0.3-0.3l2,0.3L34.9,22.2C34.9,22.1,34.9,22.1,34.9,22.2
	C34.9,22.1,34.9,22.1,34.9,22.2L34.9,22.2L34.9,22.2z M34.8,19.7l-0.1-0.2l0.2,0l0,0.2L34.8,19.7z M35,15.9L35,15.9l0-0.1v0
	c0,0,0,0,0,0c0,0,0,0,0,0L35,15.9L35,15.9z M35.1,20.6L35,20.4l0.1,0L35.1,20.6L35.1,20.6z M35.3,17.7l0-0.1c0,0,0,0,0,0L35.3,17.7
	L35.3,17.7z M35.4,21.5l-0.1-0.2l0,0L35.4,21.5L35.4,21.5z M35.8,16.7L35.8,16.7l-0.1-0.2c0,0,0,0,0,0c0,0,0,0,0,0l0,0l0,0
	c0,0,0,0,0,0L35.8,16.7L35.8,16.7z M35.8,13.7l-0.2-0.1l0,0c0,0,0-0.1,0-0.1l0-0.1c0,0,0.1,0,0.1,0l0,0l0,0h0c0,0,0.1,0,0.1,0
	L35.8,13.7L35.8,13.7z M35.9,17.5L35.9,17.5C35.9,17.4,35.9,17.4,35.9,17.5L35.9,17.5L35.9,17.5z M36,18.2C36,18.2,36,18.2,36,18.2
	l0,0.1L36,18.2z M35.9,14.6L35.9,14.6c0-0.1,0-0.1,0-0.1c0,0,0.1,0,0.1,0l0.1,0.3L35.9,14.6z M36,11.7L36,11.7
	C36,11.6,36,11.6,36,11.7c0-0.1,0-0.1,0.1-0.1l0,0.2L36,11.7z M36.3,25.4l-0.1-0.3L36.3,25.4L36.3,25.4z M36.3,15.6L36.3,15.6
	l-0.1-0.2c0,0,0,0,0,0l0,0l0,0h0c0,0,0.1,0,0.1,0l0,0.1L36.3,15.6L36.3,15.6z M36.3,12.6l0-0.2c0,0,0,0,0,0L36.3,12.6L36.3,12.6z
	 M36.2,8.9c0,0,0.1,0,0.1,0l0,0l0,0h0c0.1,0,0.1,0,0.2,0l0,0.1l-0.1,0.1L36.2,8.9z M36.6,9.7L36.6,9.7l0.1,0.2l0,0l-0.2-0.1
	C36.5,9.8,36.5,9.8,36.6,9.7z M36.4,16.4C36.4,16.4,36.4,16.4,36.4,16.4l0,0.2L36.4,16.4z M36.5,13.4C36.5,13.4,36.5,13.4,36.5,13.4
	L36.5,13.4L36.5,13.4z M36.5,10.6L36.5,10.6c0.1,0,0.1,0,0.2,0c0,0,0.1,0,0.1,0l0,0.2l0,0L36.5,10.6L36.5,10.6z M36.7,11.5
	C36.8,11.6,36.8,11.6,36.7,11.5L36.7,11.5L36.7,11.5L36.7,11.5c0.1,0,0.2,0,0.2,0l0,0.2l0,0L36.7,11.5L36.7,11.5z M36.9,12.4
	C37,12.5,37,12.5,36.9,12.4L36.9,12.4L36.9,12.4L36.9,12.4c0.1,0,0.1,0,0.1,0l0,0.2L37,12.6L36.9,12.4z M37.2,13.6l0-0.3
	c0,0,0,0,0,0l0,0l0,0c0,0,0,0,0,0c0,0,0,0,0.1,0L37.2,13.6L37.2,13.6z M37.3,14.5l0-0.1c0,0,0,0,0,0c0,0,0,0,0,0l0,0l0,0h0
	c0,0,0,0,0,0L37.3,14.5L37.3,14.5z M37.4,9.9C37.4,9.9,37.4,9.9,37.4,9.9C37.4,9.9,37.4,9.9,37.4,9.9L37.4,9.9L37.4,9.9
	c0.1,0,0.1,0,0.2-0.1c0,0,0,0,0,0l0,0l0,0.1L37.6,10L37.4,9.9C37.4,9.9,37.4,9.9,37.4,9.9z M37.5,10.7c0,0,0.1,0,0.1,0l0,0l0,0
	c0,0,0,0,0,0c0.1,0,0.1,0,0.2-0.1l0,0.2l0,0.1l-0.1,0L37.5,10.7L37.5,10.7z M37.6,11.6c0,0,0.1,0,0.1,0c0,0,0,0,0,0l0,0l0,0
	c0,0,0,0,0,0c0,0,0.1,0,0.1,0l0,0.1l-0.1,0.1L37.6,11.6L37.6,11.6z M37.8,12.5C37.8,12.5,37.8,12.5,37.8,12.5c0.1,0,0.2,0,0.2,0
	l0,0.3l0,0l-0.2-0.1L37.8,12.5z M37.9,13.7l0-0.2c0,0,0,0,0,0c0,0,0,0,0,0l0,0l0,0c0,0,0,0,0,0c0,0,0.1,0,0.1,0l0,0.1l0,0.1
	L37.9,13.7L37.9,13.7z M38.1,14.7L38,14.6l0-0.1c0,0,0.1,0,0.1,0L38.1,14.7L38.1,14.7z M38.1,15.6l0-0.2c0,0,0,0,0,0L38.1,15.6
	L38.1,15.6z M38.2,25.3l0-0.2c0,0,0,0,0,0l0,0l0,0l0.1,0c0,0,0,0,0,0s0,0,0,0l0,0l0,0l0,0l0,0l0.1,0l0,0L38.2,25.3z M38.6,9.9
	L38.6,9.9l0,0.1l0,0L38.5,10C38.5,10,38.5,9.9,38.6,9.9z M38.5,10.9l0-0.1c0,0,0,0,0,0l0,0l0,0c0.1,0,0.1,0,0.2,0l0,0.2L38.5,10.9
	L38.5,10.9z M38.7,11.7L38.7,11.7l0,0.2l-0.1-0.1C38.6,11.7,38.7,11.7,38.7,11.7z M38.6,12.8l0-0.1c0,0,0,0,0,0l0,0l0,0
	c0,0,0.1,0,0.1,0L38.6,12.8L38.6,12.8L38.6,12.8z M38.8,14.7L38.8,14.7l0-0.1c0,0,0,0,0,0L38.8,14.7z M38.7,13.7l0-0.2c0,0,0,0,0,0
	c0,0,0,0,0,0L38.7,13.7L38.7,13.7z M39.2,6.7c0,0,0.1,0,0.1,0l0,0h0l0.2-0.1l0,0.2l0,0.1L39.3,7L39,6.7C39.1,6.7,39.1,6.7,39.2,6.7z
	 M39.4,7.7L39.4,7.7L39.4,7.7C39.3,7.7,39.4,7.7,39.4,7.7z M39.2,8.4c0.1,0,0.1,0.1,0.2,0.1c0,0,0,0,0,0l0,0l0,0c0,0,0,0,0,0
	c0.1,0,0.1,0,0.1,0c0,0,0,0,0,0l0.1-0.1l0,0.2l-0.2,0.1L39.2,8.4L39.2,8.4z M39.3,9.3c0,0,0.1,0,0.1,0l0.2-0.1l0,0.1v0l-0.2,0.1
	L39.3,9.3C39.3,9.3,39.3,9.3,39.3,9.3z M39.3,11c0,0,0.1,0,0.2,0h0l0,0l0,0c0,0,0,0,0,0c0.1,0,0.1,0,0.1,0c0,0,0,0,0,0h0l0,0.2
	l-0.1,0.1L39.3,11L39.3,11z M39.4,15.8L39.4,15.8L39.4,15.8L39.4,15.8C39.4,15.8,39.4,15.8,39.4,15.8L39.4,15.8z M39.5,15L39.5,15
	l-0.1-0.1l0-0.2c0,0,0.1,0,0.1,0l0,0L39.5,15z M39.6,13.9L39.6,13.9l-0.2,0l0-0.1c0,0,0,0,0,0c0,0,0,0,0,0l0,0l0,0h0
	c0,0,0.1,0,0.1,0l0,0L39.6,13.9z M39.6,13L39.6,13l-0.2-0.2c0,0,0.1,0,0.1,0c0,0,0.1,0,0.1,0l0,0L39.6,13z M39.6,12.1L39.6,12.1
	L39.4,12c0,0,0,0,0,0c0,0,0.1,0,0.1,0l0.1,0L39.6,12.1z M48.9,14.3L48.9,14.3l-0.1-0.2C48.8,14.2,48.8,14.3,48.9,14.3z M48.7,15.7
	l0.4,0.3l0,0L48.7,15.7L48.7,15.7z M48.4,14.9L48.4,14.9L48.4,14.9L48.4,14.9C48.4,14.9,48.4,14.9,48.4,14.9z M48.6,16.5L48.6,16.5
	l-0.4-0.2l0-0.1L48.6,16.5z M48.1,13c0.1,0.1,0.2,0.3,0.2,0.4l-0.1,0.1h-0.1L48.1,13L48.1,13z M48.2,17L48.2,17l-0.4-0.1l0.1-0.1
	L48.2,17z M47.8,14.1L47.8,14.1L47.8,14.1C47.7,14.1,47.7,14.1,47.8,14.1z M47.4,12c0.1,0.1,0.2,0.3,0.3,0.4l-0.2,0.3h-0.2l-0.1-0.3
	L47.4,12z M47.6,17.6L47.6,17.6l-0.4-0.2l0,0L47.6,17.6z M47.5,16C47.5,16,47.5,16,47.5,16C47.5,16,47.5,16,47.5,16L47.5,16L47.5,16
	z M46.3,19.9L46.3,19.9l1.1,0.3l0,0.1L46.3,19.9z M47.5,23.5v0.7h-0.2v-0.8L47.5,23.5z M45.4,18.5L45.4,18.5
	C45.5,18.5,45.5,18.5,45.4,18.5C45.5,18.5,45.5,18.5,45.4,18.5v0.1V18.5z M45.4,16.2L45.4,16.2L45.3,16l0.1-0.1c0,0,0,0,0.1,0
	s0,0,0.1,0l0.1,0L45.4,16.2z M45.5,17.4L45.5,17.4l0.1-0.2c0,0,0,0,0,0c0,0,0,0,0,0L45.5,17.4z M45.5,14.1l0-0.2
	c0.1,0,0.1,0.1,0.2,0.1h0l0,0.1L45.5,14.1L45.5,14.1z M45.6,19.3l0.2,0.1l-0.1,0.1L45.6,19.3L45.6,19.3z M45.8,15.4L45.8,15.4
	C45.8,15.3,45.8,15.3,45.8,15.4l0.1,0l0,0L45.8,15.4z M46,13.3h-0.1l0,0C45.9,13.3,45.9,13.3,46,13.3L46,13.3L46,13.3z M46.1,16.6
	L46.1,16.6L46.1,16.6L46.1,16.6C46,16.6,46,16.6,46.1,16.6z M46,17.8l0.1-0.1c0,0,0,0,0,0c0,0,0,0,0.1,0L46,17.9l0,0L46,17.8
	L46,17.8z M46.2,18.7l0.2,0.1l-0.1,0.1l-0.3-0.1L46.2,18.7z M46.5,16C46.5,16,46.5,16,46.5,16L46.5,16L46.5,16L46.5,16z M47.2,18.1
	L47.2,18.1l-0.3,0.3l-0.3-0.2l0.2-0.3L47.2,18.1z M47,16.6C47.1,16.6,47.1,16.6,47,16.6L47,16.6L47,16.6L47,16.6z M47,13.4L47,13.4
	L47,13.4L47,13.4L47,13.4C47,13.3,47,13.4,47,13.4z M47,15.3L47,15.3L47,15.3l-0.1,0.1l0-0.2C46.9,15.2,46.9,15.2,47,15.3
	C47,15.3,47,15.3,47,15.3z M46.9,11.3h-0.1L46.7,11C46.7,11.1,46.8,11.2,46.9,11.3z M46.5,12h0.1l0,0.1L46.5,12L46.5,12
	C46.4,11.9,46.5,12,46.5,12z M46.3,14.7l-0.1,0l0-0.3c0,0,0,0,0,0c0,0,0,0,0,0.1c0.1,0,0.1,0.1,0.2,0.1L46.3,14.7z M46.2,12.7
	L46.2,12.7L46.2,12.7C46.2,12.7,46.2,12.7,46.2,12.7z M45.7,9.8c0.2,0.2,0.3,0.4,0.5,0.5l-0.1,0.2h-0.3l-0.2-0.4L45.7,9.8z
	 M45.4,11.1c0.1,0,0.1,0.1,0.2,0.1h0h0.2l-0.1,0.1h-0.3L45.4,11.1C45.4,11.1,45.4,11.1,45.4,11.1z M45.3,12h0.2l0,0L45.3,12L45.3,12
	C45.3,12,45.3,12,45.3,12z M44.3,16.3c0,0,0.1,0,0.1,0l-0.1,0.1l0,0L44.3,16.3L44.3,16.3z M44.2,12.1L44.2,12.1l0.2,0l0,0L44.2,12.1
	z M44.5,20.5l0.1,0l-0.2,0.1l-0.1,0L44.5,20.5C44.4,20.6,44.4,20.6,44.5,20.5C44.4,20.6,44.4,20.6,44.5,20.5L44.5,20.5z M44.4,17.5
	L44.4,17.5C44.5,17.5,44.5,17.5,44.4,17.5L44.4,17.5L44.4,17.5z M44.5,14.3l-0.1,0l0-0.2c0,0,0.1,0,0.1,0h0h0.1L44.5,14.3z
	 M44.3,21.7l2.2,0.6l0.1,0.2l-2.5-0.6L44.3,21.7z M44.7,15.4L44.7,15.4c0.1,0,0.1,0,0.2,0l-0.1,0.2h-0.1L44.7,15.4z M44.9,16.9
	L44.9,16.9l0-0.1c0,0,0.1,0,0.1,0L44.9,16.9L44.9,16.9L44.9,16.9z M44.9,19.1L44.9,19.1L44.9,19.1L44.9,19.1
	C44.9,19.1,44.9,19.1,44.9,19.1z M45.1,19.9l0.2,0.1l-0.1,0.1L45,20L45.1,19.9z M45.3,14.8h-0.1l0-0.1
	C45.2,14.7,45.2,14.7,45.3,14.8L45.3,14.8L45.3,14.8L45.3,14.8L45.3,14.8z M45.2,12.7H45l0,0c0,0,0,0,0,0L45.2,12.7L45.2,12.7z
	 M45.1,9.2L45.1,9.2l-0.2-0.3C45,9,45,9.1,45.1,9.2z M44.8,9.8C44.8,9.8,44.8,9.8,44.8,9.8L44.8,9.8L44.8,9.8L44.8,9.8
	C44.9,9.8,44.9,9.8,44.8,9.8l0.1,0l0,0.1L44.8,9.8L44.8,9.8C44.8,9.8,44.8,9.8,44.8,9.8z M44.9,13.4l-0.1,0.1h-0.2l-0.1-0.1l0-0.1
	c0,0,0.1,0.1,0.2,0.1L44.9,13.4L44.9,13.4z M44.7,10.6L44.7,10.6h0.1l0,0.2h-0.1l-0.1-0.2C44.5,10.5,44.6,10.6,44.7,10.6z
	 M44.4,11.4C44.4,11.4,44.4,11.4,44.4,11.4h0.1l0,0.1L44.4,11.4l-0.1,0C44.4,11.4,44.4,11.4,44.4,11.4z M43.8,7.8
	C44,8,44.1,8.2,44.3,8.3l-0.1,0.3l-0.2,0l-0.2-0.4L43.8,7.8z M44.1,9.3L44.1,9.3l-0.3,0.1l0,0c0,0,0,0,0,0c0,0,0,0,0,0h0l0,0l0,0
	c0,0,0,0,0,0L44.1,9.3z M43.6,10C43.6,10,43.6,10,43.6,10L43.6,10L43.6,10L43.6,10C43.6,10,43.7,10,43.6,10l0.3,0l0,0.2h-0.2
	L43.6,10C43.6,10,43.6,10,43.6,10z M43.8,13.7L43.8,13.7l-0.1,0l0,0C43.7,13.7,43.7,13.7,43.8,13.7L43.8,13.7L43.8,13.7L43.8,13.7z
	 M43.3,11.6L43.3,11.6h0.2l0,0.1L43.3,11.6L43.3,11.6C43.3,11.5,43.3,11.6,43.3,11.6z M42.8,8.1L42.7,8c0,0,0,0,0,0c0,0,0,0,0,0
	c0,0,0,0,0,0l0,0l0,0c0,0,0,0,0.1,0l0.3-0.1l0,0.2L42.8,8.1z M43,8.7L43,8.7l-0.2,0.1l0-0.1c0,0,0,0,0.1,0L43,8.7z M42.6,6.8
	c0.2,0.2,0.3,0.3,0.5,0.5l-0.2,0l-0.3-0.4L42.6,6.8z M42.4,10.3C42.4,10.3,42.4,10.3,42.4,10.3L42.4,10.3L42.4,10.3L42.4,10.3
	C42.4,10.3,42.4,10.3,42.4,10.3l0.3,0l0,0.2l-0.2,0.1L42.4,10.3C42.4,10.3,42.4,10.3,42.4,10.3z M42.3,11.2L42.3,11.2L42.3,11.2
	L42.3,11.2L42.3,11.2C42.4,11.2,42.4,11.2,42.3,11.2l0.2,0l0,0.1L42.3,11.2L42.3,11.2C42.3,11.2,42.3,11.2,42.3,11.2z M42,6.3l0,0.5
	l-0.2,0.1l-0.4-0.5l0-0.6C41.5,5.9,41.7,6.1,42,6.3z M41.7,7.6L41.7,7.6c-0.1-0.1,0-0.1,0-0.1l0.2-0.1l0,0.1L41.7,7.6z M41.8,8.3
	L41.8,8.3L41.8,8.3L41.8,8.3z M41.7,8.3l-0.1,0l0,0C41.6,8.3,41.6,8.4,41.7,8.3C41.7,8.4,41.7,8.3,41.7,8.3z M41.2,8.9L41.2,8.9
	C41.3,9,41.3,9,41.2,8.9c0.1,0.1,0.2,0.1,0.3,0.1c0,0,0.1,0,0.1,0l0.2,0l0,0.3l-0.2,0.1L41.2,8.9L41.2,8.9z M41.4,10.1L41.4,10
	C41.4,10,41.4,10,41.4,10.1c0-0.1,0.1-0.1,0.1-0.1l0.1,0l0,0.1L41.4,10.1z M41.6,10.7L41.6,10.7l0,0.1l-0.1,0l-0.1-0.1
	c0,0,0,0,0.1,0L41.6,10.7z M40.7,15.2C40.7,15.2,40.7,15.2,40.7,15.2C40.8,15.2,40.8,15.2,40.7,15.2L40.7,15.2L40.7,15.2L40.7,15.2
	c0.1,0,0.1,0,0.1,0l0,0.1l0,0L40.7,15.2L40.7,15.2z M40.6,7.2l-0.1,0.1L40.3,7c0,0,0.1,0,0.1,0c0,0,0.1,0,0.1,0l0.1,0L40.6,7.2z
	 M40.5,8L40.5,8c0,0,0.1,0,0.1,0v0L40.5,8z M40.6,8.6l0,0.3l-0.1,0l-0.2-0.3c0,0,0,0,0.1,0c0,0,0.1,0,0.1,0L40.6,8.6z M40.4,11.3
	C40.4,11.3,40.4,11.3,40.4,11.3l0,0.1L40.4,11.3L40.4,11.3C40.3,11.3,40.4,11.3,40.4,11.3z M40.5,6.3C40.5,6.3,40.5,6.3,40.5,6.3
	L40.5,6.3L40.5,6.3z M40.6,6.3L40.6,6.3L40.6,6.3L40.6,6.3z M40,4.8c0.2,0.1,0.4,0.3,0.6,0.4v0.3l-0.2,0.1L40,5.2L40,4.8z
	 M40.3,13.1L40.3,13.1l0-0.1C40.3,13,40.3,13,40.3,13.1L40.3,13.1z M40.4,12.3l-0.1-0.1l0,0c0,0,0.1,0,0.1,0L40.4,12.3z M40.4,17
	l0-0.2c0,0,0,0,0,0L40.4,17z M40.5,10.5L40.5,10.5l-0.1-0.1c0,0,0.1,0,0.1,0l0,0L40.5,10.5z M40.6,9.7L40.6,9.7l-0.1-0.1
	C40.4,9.6,40.5,9.6,40.6,9.7L40.6,9.7L40.6,9.7z M40.6,16.2L40.6,16.2l0-0.1c0,0,0,0,0,0c0,0,0,0,0,0l0,0l0,0h0c0,0,0,0,0,0
	L40.6,16.2z M40.9,25.5h-0.2l0-0.4h0.2L40.9,25.5L40.9,25.5z M41,14.5L41,14.5l-0.2-0.2l0-0.1c0,0,0.1,0,0.1,0h0l0,0l0,0l0,0
	c0,0,0.1,0,0.1,0L41,14.5z M41.2,13.5L41.2,13.5l-0.2-0.2l0-0.1c0,0,0.1,0,0.1,0h0l0,0l0,0l0,0c0,0,0,0,0.1,0l0.1,0L41.2,13.5z
	 M41.2,12.6C41.2,12.6,41.2,12.6,41.2,12.6L41.2,12.6L41.2,12.6z M41.2,16.4L41.2,16.4l0-0.1c0,0,0,0,0,0c0,0,0,0,0,0l0,0l0,0h0
	c0,0,0,0,0,0L41.2,16.4z M41.3,11.9l-0.3-0.4l0-0.1l0.1,0.1c0,0,0,0,0,0c0.1,0.1,0.1,0.1,0.2,0.1c0,0,0,0,0.1,0L41.3,11.9L41.3,11.9
	z M41.5,15.6L41.5,15.6l0-0.1h0c0,0,0.1,0,0.1,0L41.5,15.6L41.5,15.6z M41.7,25.5h-0.2v-0.4h0.2V25.5z M41.7,14.7L41.7,14.7
	l-0.1-0.1l0-0.1c0,0,0.1,0,0.1,0c0,0,0,0,0,0l0,0l0,0c0,0,0,0,0,0c0,0,0,0,0,0L41.7,14.7z M41.9,16.7L41.9,16.7
	C41.9,16.6,41.9,16.6,41.9,16.7L41.9,16.7z M42,13.8L42,13.8L42,13.8l-0.2-0.1l0-0.1c0,0,0.1,0,0.1,0c0,0,0,0,0,0c0,0,0,0,0,0l0,0
	c0,0,0,0,0,0c0,0,0,0,0.1,0l0.1,0L42,13.8z M42.1,11.9C42.1,11.9,42.1,11.9,42.1,11.9c0.1,0,0.1,0.1,0.2,0.1h0l0,0l0,0l0,0
	c0,0,0,0,0.1,0l0.1,0l-0.1,0.3l-0.2,0.1L42,12.1L42.1,11.9z M42.1,18l0.1-0.2h0L42.1,18z M42.1,15.9L42.1,15.9l0-0.1c0,0,0,0,0,0
	c0,0,0,0,0,0L42.1,15.9z M42.3,14.9c0,0,0.1,0,0.1,0l0,0.1l-0.1,0L42.3,14.9L42.3,14.9z M42.5,17l-0.1,0.1h-0.1L42.5,17
	C42.5,16.9,42.5,17,42.5,17z M42.4,25.5C42.4,25.5,42.4,25.4,42.4,25.5C42.4,25.4,42.4,25.4,42.4,25.5l0-0.4h0.3l0,0.4H42.4z
	 M42.6,24.3h-0.3l0-0.5l0.3-0.2L42.6,24.3z M42.7,14.3l-0.1-0.2l0-0.1c0,0,0,0,0,0c0,0,0,0,0,0l0,0c0,0,0.1,0,0.1,0c0,0,0,0,0,0
	c0,0,0,0,0,0l0,0c0,0,0,0,0,0c0,0,0,0,0.1,0L42.7,14.3L42.7,14.3z M42.8,16.3l-0.1-0.1l0,0c0,0,0.1,0,0.1,0L42.8,16.3z M42.5,9.6
	l-0.1-0.1C42.5,9.5,42.5,9.5,42.5,9.6C42.6,9.5,42.6,9.5,42.5,9.6C42.6,9.5,42.6,9.5,42.5,9.6L42.5,9.6L42.5,9.6
	c0.1-0.1,0.1-0.1,0.1-0.1l0.2,0l0,0.1L42.5,9.6z M42.9,13.3L42.9,13.3C42.9,13.2,42.9,13.2,42.9,13.3L42.9,13.3l0.1,0L42.9,13.3z
	 M43.1,15.6L43.1,15.6L43,15.3l0,0c0,0,0.1,0,0.2,0h0h0L43.1,15.6z M43.2,12.6h-0.1L43,12.4l0-0.1c0,0,0.1,0,0.1,0c0,0,0,0,0,0
	c0,0,0,0,0,0l0,0l0,0c0,0,0,0,0.1,0l0.1,0l0,0.1L43.2,12.6z M43.5,25.5h-0.2l0-0.4h0.2L43.5,25.5z M43.5,24.3h-0.2l0-1.3l0.2-0.2
	V24.3z M43.3,16.6L43.3,16.6C43.4,16.6,43.4,16.6,43.3,16.6L43.3,16.6L43.3,16.6L43.3,16.6z M43.5,17.8L43.5,17.8L43.5,17.8
	C43.5,17.8,43.5,17.8,43.5,17.8L43.5,17.8z M43.4,14.7L43.4,14.7l-0.1-0.2l0.1-0.2c0,0,0.1,0,0.1,0h0.1L43.4,14.7z M43.5,10.9
	l-0.1-0.1C43.5,10.8,43.5,10.8,43.5,10.9L43.5,10.9l0.2-0.1l0,0.1L43.5,10.9L43.5,10.9z M43.7,15.9l0-0.1c0,0,0.1,0,0.1,0L43.7,15.9
	L43.7,15.9L43.7,15.9z M43.8,21.3L43.8,21.3l0.1-0.1l0,0L43.8,21.3z M43.8,12.9L43.8,12.9c0.1-0.1,0.1-0.1,0.2-0.1c0,0,0,0,0,0l0,0
	l0,0l0,0c0,0,0,0,0,0l0.1,0L44,13.1h-0.1L43.8,12.9z M43.9,17.1L43.9,17.1C43.9,17,44,17.1,43.9,17.1L43.9,17.1z M44,18.2L44,18.2
	L44,18.2C44,18.2,44,18.2,44,18.2L44,18.2z M44.1,15.1L44,15l0-0.1c0,0,0.1,0,0.1,0c0,0,0,0,0,0l0,0L44.1,15.1L44.1,15.1z
	 M44.3,25.5h-0.2l0-0.4h0.2V25.5z M44.3,24.3h-0.2v-1.7l0.2,0C44.3,22.7,44.3,24.3,44.3,24.3z M45.1,25.5H45v-0.4h0.2V25.5z
	 M45.1,24.3H45v-1.4l0.2,0V24.3z M45.9,25.5h-0.1v-0.4h0.1V25.5z M45.9,24.3h-0.1v-1.2l0.1,0V24.3z M46.7,25.5h-0.2v-0.4h0.2V25.5z
	 M46.7,24.3h-0.1v-1l0.1,0V24.3z M44.9,21.1L45,21l1.8,0.5l0.1,0.2L44.9,21.1z M47.1,21C47.1,21,47.1,21,47.1,21l-1.5-0.4l0.1-0.1
	L47.1,21l0.1,0L47.1,21z M47.4,25.5v-0.4h0.2l0,0.4H47.4z M48.3,25.5h-0.1l0-0.4h0.1C48.3,25.1,48.3,25.5,48.3,25.5z M48.3,24.3
	h-0.1v-0.6l0.1,0V24.3z M49.2,26.7L49.2,26.7L49.2,26.7L49.2,26.7C49.2,26.6,49.2,26.7,49.2,26.7z M49.2,25.5H49v-0.4h0.2V25.5z
	 M49.2,24.3H49v-0.4l0.2,0.1V24.3z M49.2,23.1l-1.6-0.4l-0.1-0.1L49.2,23.1L49.2,23.1z M49.3,22.3L47.9,22l-0.1-0.2l1.4,0.4
	L49.3,22.3z M49.3,21.6l-1.1-0.3l-0.1-0.1L49.3,21.6L49.3,21.6z M49.3,20.8l-0.9-0.3l0-0.1L49.3,20.8L49.3,20.8z M49.4,20.1
	l-2.5-0.8l0.1-0.1L49.4,20.1L49.4,20.1z M49.4,19.3l-1.9-0.6l0,0L49.4,19.3L49.4,19.3z M49.5,18l-1-0.3l0,0L49.5,18L49.5,18z
	 M49.1,15.2l0.1-0.2c0.1,0.2,0.2,0.3,0.3,0.5L49.1,15.2z M49.9,26L49.9,26l-0.1-0.2v0C49.8,25.8,49.9,25.9,49.9,26L49.9,26z
	 M58.5,15.2L58.5,15.2l-0.2,0l0-0.1c0,0,0,0,0,0C58.4,15.2,58.4,15.2,58.5,15.2L58.5,15.2z M56.3,13.9c0.1,0,0.1,0,0.2-0.1
	c0,0,0,0,0,0l0,0.1L56.4,14L56.3,13.9L56.3,13.9C56.2,13.9,56.3,13.9,56.3,13.9z M56.3,15.8L56.3,15.8L56.3,15.8L56.3,15.8
	L56.3,15.8C56.2,15.8,56.2,15.8,56.3,15.8z M55.9,14.9C55.9,14.9,55.9,14.9,55.9,14.9l0.1,0.1l0,0l-0.2,0l0-0.1
	C55.8,15,55.9,14.9,55.9,14.9z M56,16.9L56,16.9l-0.2-0.2c0,0,0,0,0.1,0L56,16.9z M55.5,14.1C55.6,14.1,55.6,14.1,55.5,14.1
	C55.6,14.1,55.6,14.1,55.5,14.1l0.1,0.1l-0.1,0.1l-0.1,0l0-0.1C55.5,14.2,55.5,14.2,55.5,14.1z M55.5,15.9
	C55.5,15.9,55.5,15.9,55.5,15.9l0.1,0.2l0,0l-0.1,0L55.4,16C55.5,16,55.5,16,55.5,15.9z M55.4,17.2L55.4,17.2l-0.2-0.2
	c0,0,0,0,0.1,0L55.4,17.2z M55.1,20.8l0.1,0.1l-2.2,0.3l0.1-0.2L55.1,20.8z M54.6,17.4C54.6,17.4,54.6,17.4,54.6,17.4l0.2,0.1l0,0
	l-0.1,0L54.6,17.4z M55.2,18.2C55.2,18.2,55.2,18.2,55.2,18.2l0.1,0.1h0L55.2,18.2z M55.1,15.2C55.1,15.2,55.1,15.2,55.1,15.2
	C55.1,15.2,55.1,15.2,55.1,15.2L55.1,15.2l0.1,0.1l0,0L55.1,15.2L55,15.3C55,15.3,55,15.2,55.1,15.2z M54.9,16.4l-0.1,0l-0.1-0.1
	c0,0,0.1,0,0.1,0L54.9,16.4L54.9,16.4z M54.6,14.5C54.6,14.5,54.6,14.5,54.6,14.5l0.2-0.2l0.1,0.2l-0.1,0.1L54.6,14.5L54.6,14.5
	C54.5,14.5,54.6,14.5,54.6,14.5z M54.5,20.2l-1.7,0.3l0.1-0.1L54.5,20.2L54.5,20.2z M53.4,18.1l0.1,0.1l-0.1,0c0,0,0,0,0,0l-0.1-0.1
	L53.4,18.1z M53.4,17.1C53.4,17.1,53.4,17.1,53.4,17.1l0.2,0.1v0l0,0l0,0l-0.1,0L53.4,17.1C53.4,17.2,53.4,17.2,53.4,17.1
	C53.4,17.2,53.4,17.2,53.4,17.1L53.4,17.1z M53.7,19.5L53.7,19.5L53.7,19.5L53.7,19.5l-1,0.2l0,0l-0.2,0l0.1-0.1L53.7,19.5z
	 M52.8,22.7C52.8,22.7,52.9,22.7,52.8,22.7l0.2,0l-0.1,0.2l-2.4,0.3l0-0.1l0.4-0.1c0,0,0,0,0,0l0.7-0.1c0,0,0,0,0,0l0.6-0.1
	c0,0,0,0,0,0L52.8,22.7z M53.9,18.8L53.9,18.8L53.9,18.8L53.9,18.8l0.2,0.1L53.9,18.8L53.9,18.8C54,18.9,54,18.9,53.9,18.8
	C54,18.9,54,18.9,53.9,18.8L53.9,18.8z M54.4,15.6L54.4,15.6l-0.2,0.1l0-0.1c0,0,0.1,0,0.1,0C54.3,15.6,54.3,15.6,54.4,15.6
	c-0.1-0.1-0.1-0.1-0.1-0.1L54.4,15.6z M54.4,13.8l-0.1,0.1l-0.1,0l0,0C54.2,13.8,54.3,13.8,54.4,13.8z M54.1,16.7
	C54.1,16.6,54.1,16.6,54.1,16.7C54.1,16.6,54.1,16.6,54.1,16.7l0.2,0.1l0,0h-0.1l0,0c0,0,0,0,0,0s0,0,0,0L54.1,16.7
	C54,16.7,54,16.7,54.1,16.7z M54,17.8l0.1,0.2h0L54,17.8C54,17.8,54,17.8,54,17.8z M53.9,14.9C53.9,14.9,53.9,14.9,53.9,14.9
	C53.9,14.8,53.9,14.8,53.9,14.9l0.1,0L53.9,15l-0.1,0l0-0.1C53.8,14.9,53.8,14.9,53.9,14.9z M53.6,16C53.6,16,53.6,15.9,53.6,16
	l0.1,0.1l0,0.1h-0.2l0,0C53.5,16.1,53.5,16,53.6,16C53.6,16,53.6,16,53.6,16z M53.5,14.1L53.5,14.1l0,0.2l-0.2,0l0-0.1
	C53.3,14.2,53.4,14.2,53.5,14.1z M53.1,15.3C53.1,15.3,53.1,15.3,53.1,15.3C53.1,15.3,53.2,15.3,53.1,15.3l0.1,0L53.1,15.3L53,15.4
	l0,0C53,15.4,53,15.4,53.1,15.3z M52.9,16.4C52.9,16.4,52.9,16.4,52.9,16.4l0.1,0.1l0,0.1l-0.1,0L52.9,16.4
	C52.8,16.5,52.8,16.5,52.9,16.4z M52.9,17.6l-0.2,0l0,0c0,0,0,0,0,0v0l0,0L52.9,17.6L52.9,17.6z M52.6,14.5l0.1,0.2l-0.1,0.1h-0.3
	l-0.1-0.1C52.4,14.6,52.5,14.5,52.6,14.5z M52.3,15.8C52.3,15.8,52.4,15.8,52.3,15.8C52.4,15.8,52.4,15.8,52.3,15.8l0.1,0L52.3,15.8
	L52.3,15.8C52.3,15.9,52.3,15.8,52.3,15.8z M52.2,16.9L52.2,16.9L52,17L52,17L52.2,16.9z M51.7,14.9l0.2,0.2l0,0.1l-0.3,0l-0.2-0.2
	C51.5,15,51.6,15,51.7,14.9z M51.7,16.3L51.7,16.3l-0.3,0.2l0,0c0,0,0,0,0,0L51.7,16.3z M51.1,15.7L51.1,15.7L50.9,16l-0.1,0
	L51.1,15.7z M50.3,17.8l1.3-0.2l0,0L50.3,17.8L50.3,17.8z M50.3,18.5l2-0.3l0.1,0.1L50.3,18.5L50.3,18.5z M50.4,19.2l2.6-0.4
	l0.1,0.1L52.3,19h0L50.4,19.2L50.4,19.2z M50.4,19.9l1.3-0.2l-0.1,0.1L50.4,19.9L50.4,19.9z M50.4,20.7l1.5-0.2l-0.1,0.1l-1.4,0.2
	L50.4,20.7z M50.5,21.5l1.8-0.3l-0.1,0.2l-1.7,0.2L50.5,21.5z M50.5,22.3l2.1-0.3l-0.1,0.1l-0.4,0.1l0,0c0,0,0,0,0,0l-0.6,0.1l0,0
	c0,0,0,0,0,0l-0.7,0.1c0,0,0,0,0,0s0,0,0,0l-0.4,0.1L50.5,22.3z M50.6,25.5L50.6,25.5l-0.1-0.4h0.1L50.6,25.5z M50.7,24.3h-0.2V24
	l0.2,0V24.3z M51.4,25.5h-0.1l0.1-0.4h0.1L51.4,25.5z M51.5,24.3h-0.1v-0.4l0.1,0V24.3z M52.1,25.5L52.1,25.5l0-0.4h0.1L52.1,25.5z
	 M52.3,24.3h-0.2v-0.5l0.2,0V24.3z M52.9,25.5h-0.1l0.1-0.4H53L52.9,25.5z M53.1,24.3H53v-0.6l0.1,0L53.1,24.3L53.1,24.3z
	 M53.6,21.8l2.3-0.3l0,0c0,0,0,0,0,0l0.1,0.1l0,0l0,0l-0.3,0l0,0h0l-0.4,0l-0.4,0c0,0,0,0,0,0h0l-0.5,0c0,0,0,0,0,0c0,0,0,0,0,0
	l-0.5,0.1c0,0,0,0,0,0h0l-0.2,0c0,0,0,0,0,0l-0.2,0L53.6,21.8z M53.7,25.5h-0.1l0.1-0.4h0.1L53.7,25.5z M53.9,24.3h-0.1v-0.7l0.1,0
	V24.3z M54.5,25.5h-0.1l0.1-0.4h0.1L54.5,25.5z M54.7,24.3h-0.2v-0.8l0.2,0V24.3z M55.1,25.5L55.1,25.5L55.1,25.5L55.1,25.5z
	 M55.5,24.3h-0.2v-0.9l0.2,0V24.3z M55.9,25.5L55.9,25.5l-0.1-0.4h0.1V25.5z M56.4,24.3h-0.2v-1l0.2,0V24.3z M53.8,22.7l0.1-0.2l0,0
	c0,0,0,0,0,0l0.5-0.1h0l0.5,0l0,0l0.4,0l0.4,0l0,0l0.3,0c0,0,0,0,0,0l0.3,0l0.2,0l0,0l0.1,0l0.1,0.1L53.8,22.7z M56.5,16.5
	C56.5,16.5,56.6,16.5,56.5,16.5l0.1,0.2l0,0l0,0L56.5,16.5z M56.7,14.8l-0.1,0l-0.1-0.1c0,0,0,0,0,0c0.1,0,0.1,0,0.2,0L56.7,14.8
	L56.7,14.8z M57,15.6L57,15.6l-0.1-0.1c0,0,0.1,0,0.1,0L57,15.6L57,15.6z M57.3,24.3H57v-1.1h0l0.3,0.3
	C57.3,23.5,57.3,24.3,57.3,24.3z M57.2,16.3C57.2,16.3,57.2,16.3,57.2,16.3l0.1,0.2l0,0L57.2,16.3z M57.3,13.8l-0.1,0l0-0.1
	c0,0,0,0,0,0c0.1,0,0.1,0,0.2-0.1L57.3,13.8L57.3,13.8z M57.3,14.4c0,0,0.1,0,0.1,0l0,0.2l-0.1,0.1l-0.1,0L57.3,14.4z M57.5,25.5
	L57.5,25.5l0.1-0.4h0.1L57.5,25.5z M57.6,15.4l0-0.1c0,0,0,0,0.1,0L57.6,15.4L57.6,15.4z M58,13.5L58,13.5C58,13.5,58,13.5,58,13.5
	c0.1-0.1,0.2-0.1,0.2-0.2c0,0,0,0,0,0l0,0.1l-0.1,0.1L58,13.5z M58.1,14.3C58.1,14.3,58.1,14.3,58.1,14.3c0.1,0,0.2,0,0.2-0.1l0,0.1
	l-0.1,0.1l-0.1-0.1L58.1,14.3z M58.3,25.5h-0.1l0.2-0.4h0.1L58.3,25.5z M58.6,16.2L58.6,16.2L58.5,16c0,0,0,0,0,0c0,0,0.1,0,0.1,0
	L58.6,16.2L58.6,16.2z M58.7,17.1l0-0.2c0,0,0,0,0,0c0,0,0,0,0,0L58.7,17.1L58.7,17.1z M58.9,13.4L58.9,13.4
	C58.9,13.4,58.9,13.4,58.9,13.4c0.1,0,0.1,0,0.2,0v0L58.9,13.4L58.9,13.4z M59,14.3l0-0.2c0,0,0.1,0,0.1,0l0,0.2L59,14.3L59,14.3z
	 M59.1,15.2L59.1,15.2L59.1,15.2c0-0.1,0-0.1,0.1-0.1L59.1,15.2L59.1,15.2z M59.3,16.1L59.3,16.1l0-0.2c0,0,0,0,0,0L59.3,16.1
	L59.3,16.1z M64,16.5L64,16.5l0.1-0.2c0,0,0,0,0,0L64,16.5z M64.4,15.6L64.4,15.6L64.4,15.6C64.4,15.6,64.4,15.6,64.4,15.6
	C64.4,15.6,64.4,15.6,64.4,15.6L64.4,15.6z M64.6,16.8L64.6,16.8l0.1-0.2c0,0,0,0,0,0c0,0,0,0,0,0L64.6,16.8z M64.7,14.9L64.7,14.9
	l-0.1,0l0.1-0.2c0,0,0,0,0,0c0,0,0.1,0,0.1,0L64.7,14.9z M65.1,15.9L65.1,15.9L65.1,15.9l0-0.1c0,0,0,0,0,0
	C65.1,15.8,65.1,15.8,65.1,15.9L65.1,15.9z M65.5,15.1l-0.1,0l0,0l0.1-0.2c0,0,0,0,0,0c0,0,0.1,0,0.1,0L65.5,15.1z M66.4,12.9
	c0.1,0,0.2,0,0.4,0.1l-0.3,0.6l-0.2,0.1l-0.1-0.1L66.4,12.9z M65.8,14.2L65.8,14.2L65.8,14.2C65.8,14.2,65.8,14.2,65.8,14.2
	C65.9,14.2,65.9,14.2,65.8,14.2c0.1,0.1,0.2,0.1,0.2,0.1l0,0l-0.2,0L65.8,14.2L65.8,14.2z M65.5,12.7c0.1,0,0.2,0,0.3,0l-0.2,0.5
	l-0.2,0.1l-0.1-0.1L65.5,12.7z M65,13.9C65,13.9,65,13.9,65,13.9c0.1,0,0.1,0.1,0.2,0.1l0,0L65,14.1L65,13.9L65,13.9z M64.5,12.6
	c0.1,0,0.2,0,0.3,0L64.7,13L64.5,13l-0.1-0.1L64.5,12.6z M64.2,13.6C64.2,13.6,64.2,13.6,64.2,13.6c0.1,0.1,0.1,0.1,0.2,0.1
	c0,0,0,0,0,0l0,0l-0.2,0.1L64.2,13.6L64.2,13.6z M63.9,14.4C63.9,14.4,63.9,14.5,63.9,14.4c0.1,0.1,0.1,0.1,0.2,0.1L64,14.7
	l-0.1,0.1l-0.1-0.1L63.9,14.4C63.9,14.4,63.9,14.4,63.9,14.4z M63.6,12.5c0.1,0,0.2,0,0.3,0l-0.1,0.2l-0.2,0.1l-0.1-0.1L63.6,12.5z
	 M63.6,15.4L63.6,15.4C63.6,15.4,63.6,15.4,63.6,15.4c0,0,0.1,0,0.1,0l0,0L63.6,15.4L63.6,15.4L63.6,15.4L63.6,15.4z M63.3,13.5
	c0.1,0,0.1,0.1,0.2,0.1l0,0l-0.1,0.1L63.3,13.5L63.3,13.5z M63.3,16.2C63.4,16.2,63.4,16.2,63.3,16.2l0,0.2l0,0l0,0L63.3,16.2z
	 M63.1,14.3c0,0,0.1,0,0.1,0l-0.1,0.2l-0.1,0l-0.1-0.1L63.1,14.3z M63.1,17.1C63.1,17.1,63.1,17.1,63.1,17.1L63.1,17.1L63.1,17.1z
	 M63,15.2C63,15.2,63,15.2,63,15.2L63,15.2l-0.1,0.1l0,0L63,15.2C62.9,15.2,62.9,15.2,63,15.2L63,15.2C63,15.2,63,15.2,63,15.2z
	 M62.6,12.5c0.1,0,0.2,0,0.3,0l0,0.1l-0.3,0.1l-0.1-0.1L62.6,12.5z M62.7,16l-0.1,0.2l0,0L62.7,16C62.7,16,62.7,16,62.7,16z
	 M62.4,13.3c0.1,0,0.1,0,0.2,0c0,0,0.1,0,0.1,0l-0.1,0.1L62.4,13.3L62.4,13.3z M62.3,14L62.3,14C62.3,14.1,62.3,14.1,62.3,14
	c0.1,0,0.1,0.1,0.2,0.1c0,0,0,0,0,0l-0.1,0.2l-0.2,0.1l-0.1,0L62.3,14z M62.1,15.1c0,0,0.1,0,0.1,0l0,0l-0.2,0.1l0,0L62.1,15.1z
	 M61.9,15.9C62,15.9,62,15.9,61.9,15.9C62,15.9,62,15.9,61.9,15.9l0,0.2l0,0l0,0L61.9,15.9z M61.9,12.5L61.9,12.5l-0.2,0.1l-0.1-0.1
	C61.7,12.5,61.8,12.5,61.9,12.5z M61.8,16.8l0,0.1l0,0L61.8,16.8C61.8,16.8,61.8,16.8,61.8,16.8z M61.7,13.3L61.7,13.3l-0.2,0
	C61.6,13.3,61.7,13.3,61.7,13.3z M61.5,14.1c0,0,0.1,0,0.1,0c0,0,0,0,0,0l0,0.2l0,0l-0.1-0.1L61.5,14.1z M61.4,15
	C61.4,15,61.4,15,61.4,15l0,0.1L61.4,15L61.4,15z M60.8,12.5L60.8,12.5L60.8,12.5C60.8,12.5,60.8,12.5,60.8,12.5z M59.7,13.2
	c0,0,0.1,0,0.1,0c0,0,0.1,0,0.1,0l-0.1,0.1L59.7,13.2L59.7,13.2z M59.8,14.1C59.8,14.1,59.8,14.1,59.8,14.1c0.1,0,0.1,0,0.2,0v0.2
	l-0.1,0.1l-0.1,0L59.8,14.1z M59.9,15.1L59.9,15.1C59.9,15,59.9,15,59.9,15.1c0-0.1,0.1-0.1,0.1-0.1v0L59.9,15.1L59.9,15.1z
	 M60,15.8V16l0,0L60,15.8C59.9,15.8,59.9,15.8,60,15.8z M60.3,25.2l-0.4-0.4l0.1-0.1l0.2,0h0c0,0,0,0,0,0c0,0,0,0,0,0c0,0,0,0,0,0
	l0.2,0h0c0,0,0,0,0,0c0,0,0,0,0,0l0,0l0.1,0c0,0,0,0,0,0h0l0,0L60.3,25.2z M60.6,16.9L60.6,16.9l0-0.1c0,0,0,0,0,0c0,0,0,0,0,0
	L60.6,16.9z M60.7,16L60.7,16L60.7,16l-0.1-0.2c0,0,0,0,0,0c0,0,0,0,0,0L60.7,16z M60.7,15L60.7,15l-0.1,0V15
	C60.6,15,60.6,15,60.7,15C60.7,15,60.7,15,60.7,15L60.7,15z M60.8,14.2l-0.1,0.1l-0.1-0.1V14c0,0,0.1,0,0.1,0c0,0,0.1,0,0.1,0
	L60.8,14.2z M60.9,13.2l-0.2,0.1l-0.1-0.1v-0.1c0,0,0.1,0,0.2,0C60.8,13.2,60.8,13.2,60.9,13.2L60.9,13.2z M62.6,24.9
	C62.6,24.9,62.6,24.9,62.6,24.9c-0.1,0.1-0.1,0.1-0.1,0.1c0,0,0,0.1,0,0.1c0,0,0,0,0,0v0.1c0,0,0,0.1,0,0.1c0,0,0,0,0,0.1l-1.5,0
	l0.5-1.2c0,0,0,0,0,0l0.8-1.7l0,0l0.8-1.6l0-0.1l0.3,0.4l0,0l0.5,0.9l0.5,0.9l0,0l0.2,0.4L62.6,24.9z M66.7,26.3L66.7,26.3
	L66.7,26.3L66.7,26.3z M70,22.5h0.4l0,0.1L70,22.5L70,22.5z M69.5,23.2h1.1l0,0.1L69.5,23.2L69.5,23.2z M69,23.9h1.9l0,0.1h-2
	L69,23.9z M68.8,24.8C68.8,24.8,68.8,24.8,68.8,24.8h-0.4l0.1-0.1h2.6l0,0.1H68.8z M72.7,27.4L72.7,27.4L72.7,27.4
	C72.7,27.3,72.7,27.3,72.7,27.4C72.7,27.3,72.7,27.3,72.7,27.4L72.7,27.4C72.7,27.3,72.7,27.3,72.7,27.4z M74.7,30.2h-1.2V29h1
	c0,0,0,0,0,0c0,0.1,0.1,0.2,0.1,0.3L74.7,30.2L74.7,30.2z M78.2,27L78.2,27L78.2,27L78.2,27z M77.4,20.1L77.4,20.1l-0.1,0.2
	L77.4,20.1z M76.7,27L76.7,27l0,0.2L76.7,27z M74.9,20.5L74.9,20.5L74.9,20.5L74.9,20.5L74.9,20.5L74.9,20.5z M75.4,27.4L75.4,27.4
	l0-0.4h0V27.4z M75.7,20.4l0-0.1l0,0L75.7,20.4z M78.3,30.2h-2.3v-0.8c0.1,0,0.1-0.1,0.1-0.2c0,0,0,0,0,0l0-0.2l0,0c0,0,0,0,0,0h2
	c0,0,0,0,0,0c0,0.1,0.1,0.2,0.1,0.3L78.3,30.2L78.3,30.2z M80.9,27l-0.2,0.4h0L80.9,27z M80.2,27L80.2,27L80,27.4l0,0L80.2,27z
	 M83.4,30.2H80v-0.8c0.1,0,0.1-0.1,0.1-0.2c0,0,0,0,0,0l0-0.2l0,0c0,0,0,0,0,0h2.3l1,0.4L83.4,30.2L83.4,30.2z M84.1,30.2v-0.5
	l1.4,0.5H84.1z"/>
</svg>
